<svg width="177" height="45" viewBox="0 0 177 45" fill="none" xmlns="http://www.w3.org/2000/svg">
<path d="M49.7915 38.646V35.9764C50.4174 35.9495 50.9344 35.8686 51.3425 35.7337C51.7779 35.5988 52.1044 35.2888 52.3222 34.8034C52.5671 34.318 52.6895 33.536 52.6895 32.4574V16.9658C52.6895 16.2377 52.7032 15.5365 52.7303 14.8625C52.7848 14.1884 52.8256 13.6759 52.8528 13.3254C52.4174 13.3523 51.8732 13.3794 51.2201 13.4063C50.567 13.4063 50.0909 13.4198 49.7915 13.4468V10.3323C51.7235 10.3053 53.6555 10.2918 55.5875 10.2918C57.5196 10.2918 59.4515 10.2783 61.3836 10.2514C63.7782 10.2244 65.8599 10.494 67.6287 11.0603C69.3975 11.6266 70.7579 12.5434 71.7104 13.8108C72.6628 15.0782 73.1118 16.7904 73.0574 18.9477C73.0302 20.0803 72.7445 21.1588 72.2002 22.1836C71.6832 23.2083 70.8941 24.1116 69.8328 24.8936C68.7987 25.6756 67.479 26.2958 65.8735 26.7542C66.3905 26.97 66.8939 27.3205 67.3838 27.8059C67.9007 28.2912 68.3362 28.8035 68.6899 29.3429L70.6083 32.1743C71.2069 33.091 71.7376 33.8191 72.2002 34.3585C72.6628 34.8978 73.1254 35.3023 73.588 35.5719C74.0506 35.8146 74.5813 35.9495 75.1799 35.9764V38.646H68.445C67.9552 38.2955 67.4654 37.7966 66.9756 37.1494C66.5129 36.4753 66.0096 35.7068 65.4653 34.8438L62.4449 29.9901C62.0912 29.4507 61.7781 28.9924 61.5061 28.6148C61.2612 28.2373 61.0026 27.9137 60.7305 27.6441C60.2952 27.6441 59.9278 27.6441 59.6285 27.6441C59.3291 27.6441 58.989 27.6441 58.608 27.6441V31.972C58.608 32.727 58.5944 33.4417 58.5672 34.1158C58.54 34.7899 58.4992 35.3023 58.4448 35.6528C58.7441 35.6259 59.125 35.6124 59.5876 35.6124C60.0503 35.5854 60.4993 35.5719 60.9346 35.5719C61.3973 35.545 61.7238 35.5315 61.9142 35.5315V38.646H49.7915ZM60.5673 24.7318C62.0912 24.7318 63.3157 24.516 64.2408 24.0846C65.166 23.6262 65.8327 22.9521 66.2409 22.0622C66.6762 21.1454 66.894 19.9994 66.894 18.6241C66.894 17.3298 66.6899 16.3186 66.2817 15.5905C65.8735 14.8355 65.3565 14.2827 64.7306 13.9321C64.132 13.5546 63.5198 13.3254 62.8939 13.2445C62.2679 13.1367 61.751 13.0827 61.3428 13.0827C60.7713 13.0827 60.2815 13.1501 59.8734 13.285C59.4652 13.4198 59.1523 13.7164 58.9346 14.1748C58.7168 14.6333 58.608 15.3343 58.608 16.2781V24.57C58.9074 24.5969 59.2203 24.6374 59.5468 24.6914C59.8734 24.7183 60.2136 24.7318 60.5673 24.7318ZM86.8485 39.2931C84.8893 39.2931 83.1205 38.8751 81.5423 38.0393C79.964 37.2034 78.7122 36.0168 77.7871 34.4798C76.8891 32.9159 76.4401 31.0822 76.4401 28.9789C76.4401 26.7407 76.9027 24.7858 77.8279 23.1139C78.7803 21.4151 80.032 20.1072 81.5831 19.1904C83.1613 18.2466 84.8756 17.7747 86.7261 17.7747C88.6853 17.7747 90.4404 18.1927 91.9915 19.0286C93.5426 19.8645 94.7671 21.0645 95.6651 22.6285C96.563 24.1655 97.012 26.0126 97.012 28.1699C97.012 30.435 96.5767 32.4034 95.7059 34.0753C94.8351 35.7472 93.6379 37.0416 92.114 37.9584C90.5901 38.8482 88.8349 39.2931 86.8485 39.2931ZM87.0118 36.4213C88.1002 36.3944 88.9166 36.0168 89.4608 35.2888C90.0323 34.5607 90.4268 33.6439 90.6445 32.5383C90.8623 31.4327 90.9711 30.3137 90.9711 29.1811C90.9711 28.1834 90.8894 27.1722 90.7262 26.1475C90.5901 25.1228 90.3588 24.1925 90.0323 23.3566C89.7057 22.5207 89.2568 21.8465 88.6853 21.3342C88.141 20.8219 87.4608 20.5792 86.6444 20.6061C85.5832 20.633 84.7397 21.0106 84.1138 21.7386C83.5152 22.4667 83.0797 23.3835 82.8076 24.4891C82.5627 25.5677 82.4402 26.7002 82.4402 27.8868C82.4402 29.262 82.5899 30.6103 82.8892 31.9316C83.1886 33.2528 83.6648 34.3449 84.3178 35.2079C84.9981 36.0438 85.8961 36.4483 87.0118 36.4213ZM109.355 39.2931C108.185 39.2931 107.043 39.1449 105.927 38.8482C104.811 38.5516 103.94 38.1741 103.314 37.7157L103.396 38.9291H100.294L100.131 31.972H102.784C102.866 32.781 103.192 33.5226 103.763 34.1967C104.335 34.8708 105.083 35.4101 106.008 35.8146C106.934 36.1922 107.968 36.3809 109.111 36.3809C109.573 36.3809 110.009 36.3135 110.417 36.1786C110.852 36.0438 111.206 35.8281 111.478 35.5315C111.777 35.2079 111.927 34.8169 111.927 34.3585C111.927 33.8462 111.737 33.4282 111.356 33.1046C111.002 32.781 110.471 32.4709 109.764 32.1743C109.083 31.8776 108.226 31.5406 107.192 31.1631C106.349 30.8395 105.491 30.5024 104.621 30.1519C103.777 29.8014 102.988 29.3833 102.253 28.898C101.546 28.3857 100.974 27.7654 100.539 27.0374C100.104 26.2824 99.8858 25.3655 99.8858 24.2869C99.8858 23.5048 100.035 22.7363 100.335 21.9813C100.634 21.1993 101.097 20.4983 101.723 19.878C102.349 19.2309 103.138 18.7186 104.09 18.341C105.07 17.9634 106.226 17.7747 107.56 17.7747C108.294 17.7747 109.124 17.8961 110.049 18.1388C111.002 18.3545 111.804 18.6915 112.458 19.15V17.977H115.56V25.1363H112.907C112.743 24.1925 112.403 23.3835 111.886 22.7094C111.396 22.0353 110.757 21.5229 109.968 21.1724C109.179 20.7948 108.294 20.6061 107.315 20.6061C106.634 20.6061 106.008 20.7679 105.437 21.0915C104.893 21.4151 104.621 21.9678 104.621 22.7498C104.621 23.3701 104.838 23.8689 105.274 24.2464C105.709 24.5969 106.308 24.8936 107.07 25.1363C107.832 25.379 108.675 25.6621 109.6 25.9857C110.988 26.4442 112.213 26.9834 113.274 27.6036C114.362 28.2239 115.22 28.9789 115.845 29.8687C116.471 30.7317 116.784 31.7967 116.784 33.0641C116.784 34.4663 116.431 35.6259 115.723 36.5427C115.015 37.4595 114.09 38.1471 112.947 38.6055C111.832 39.064 110.634 39.2931 109.355 39.2931ZM128.227 39.2931C126.594 39.2931 125.275 38.9831 124.268 38.3628C123.289 37.7426 122.567 36.7718 122.105 35.4506C121.669 34.1293 121.452 32.4305 121.452 30.3541V25.7026C121.452 25.2172 121.465 24.6644 121.493 24.0442C121.52 23.397 121.547 22.7768 121.574 22.1836C121.139 22.2105 120.622 22.2375 120.023 22.2645C119.452 22.2645 119.016 22.278 118.717 22.3049V19.2309H119.125C120.812 19.2309 122.146 19.096 123.125 18.8264C124.105 18.5568 124.731 18.287 125.003 18.0174H127.247V30.3946C127.247 32.1473 127.48 33.4551 127.941 34.318C128.404 35.1539 129.139 35.5719 130.146 35.5719C130.853 35.5719 131.561 35.3832 132.268 35.0056C133.003 34.6012 133.602 34.1427 134.064 33.6304V25.7026C134.064 25.2172 134.078 24.6644 134.105 24.0442C134.133 23.397 134.174 22.7768 134.227 22.1836C133.792 22.2105 133.276 22.2375 132.676 22.2645C132.105 22.2645 131.67 22.278 131.37 22.3049V19.2309H132.35C133.629 19.2309 134.758 19.096 135.738 18.8264C136.717 18.5297 137.343 18.2601 137.615 18.0174H139.86V32.1338C139.86 32.5114 139.847 33.0506 139.819 33.7517C139.792 34.4258 139.752 35.073 139.697 35.6933C140.133 35.6393 140.609 35.6124 141.125 35.6124C141.67 35.5854 142.078 35.5719 142.35 35.5719V38.646H134.595C134.568 38.2955 134.527 37.9448 134.472 37.5943C134.445 37.2438 134.405 36.8932 134.35 36.5427C133.507 37.2438 132.595 37.8775 131.615 38.4437C130.663 39.01 129.533 39.2931 128.227 39.2931ZM145.011 38.646V36.0168C145.772 36.0168 146.317 35.8686 146.643 35.5719C146.97 35.2753 147.174 34.8574 147.256 34.318C147.364 33.7518 147.419 33.1181 147.419 32.417V25.6217C147.419 25.1363 147.432 24.5969 147.46 24.0037C147.487 23.3835 147.527 22.7768 147.582 22.1836C147.146 22.2105 146.629 22.2375 146.03 22.2645C145.46 22.2645 145.023 22.278 144.725 22.3049V19.2309C145.976 19.2309 147.038 19.1635 147.909 19.0286C148.779 18.8937 149.46 18.732 149.95 18.5432C150.466 18.3545 150.82 18.1792 151.011 18.0174H153.011C153.064 18.3679 153.093 18.6241 153.093 18.7859C153.093 18.9477 153.093 19.1095 153.093 19.2713C153.119 19.4062 153.174 19.6623 153.256 20.0398C153.799 19.6084 154.425 19.2309 155.133 18.9073C155.84 18.5568 156.548 18.287 157.256 18.0983C157.963 17.8825 158.589 17.7747 159.133 17.7747C161.636 17.7747 163.405 18.4893 164.44 19.9185C165.501 21.3206 166.032 23.5857 166.032 26.7138V32.1338C166.032 32.5114 166.018 33.0506 165.991 33.7517C165.963 34.4258 165.922 35.073 165.868 35.6933C166.33 35.6393 166.82 35.6124 167.337 35.6124C167.854 35.5854 168.249 35.5719 168.521 35.5719V38.646H157.827V36.0168C158.589 36.0168 159.133 35.8686 159.46 35.5719C159.813 35.2753 160.031 34.8574 160.113 34.318C160.222 33.7518 160.276 33.1181 160.276 32.417L160.236 26.6733C160.236 24.9205 159.977 23.6262 159.46 22.7903C158.97 21.9274 158.126 21.496 156.929 21.496C156.248 21.496 155.568 21.6442 154.888 21.9409C154.235 22.2375 153.677 22.5881 153.215 22.9925C153.215 23.3701 153.215 23.7611 153.215 24.1655C153.215 24.5431 153.215 24.9205 153.215 25.2981V32.1338C153.215 32.5114 153.201 33.0506 153.174 33.7517C153.146 34.4258 153.105 35.073 153.052 35.6933C153.487 35.6393 153.962 35.6124 154.48 35.6124C155.024 35.5854 155.432 35.5719 155.705 35.5719V38.646H145.011Z" fill="white"/>
<path d="M174.061 39.2931C173.191 39.2931 172.469 38.9831 171.898 38.3628C171.354 37.7426 171.081 37.0011 171.081 36.1382C171.081 35.2753 171.381 34.5338 171.979 33.9135C172.579 33.2933 173.273 32.9832 174.061 32.9832C174.906 32.9832 175.599 33.2933 176.143 33.9135C176.714 34.5338 177 35.2753 177 36.1382C177 37.0011 176.728 37.7426 176.184 38.3628C175.667 38.9831 174.959 39.2931 174.061 39.2931Z" fill="#FDA757"/>
<path d="M11.7041 2.62182H12.1525L12.4664 2.66627L12.87 2.79957L13.1839 2.97733L13.4754 3.19951L13.6772 3.39948L13.9014 3.71055L14.2826 4.42155L14.3722 4.37711L14.4171 4.31046H14.4619L14.5068 4.22158L14.6861 4.04383L15.0001 3.82164L15.3589 3.64389L15.6728 3.55501L15.9418 3.51057H16.435L16.7938 3.57724L17.1078 3.68833L17.4664 3.88829L17.7131 4.08827L17.9149 4.28824L18.0943 4.53265L18.2288 4.75483L18.3857 5.17699L18.4529 5.59915V6.1324L18.7445 6.31015L18.9686 6.4879L19.1032 6.59899L19.305 6.8434L19.3947 6.97672L19.5292 6.95449L19.9104 6.88784H20.5158L20.9642 6.97672L21.4127 7.15447L21.7266 7.33222L21.9956 7.53219L22.2871 7.79881L22.3768 7.9099H22.4217L22.601 7.5544L22.8252 7.15447L23.0495 6.86562L23.3185 6.59899L23.5427 6.44347L23.8791 6.26571L24.2378 6.15462L24.5068 6.11019H25.0002L25.3589 6.17684L25.6728 6.28793L25.9418 6.42125L26.1885 6.59899L26.4127 6.79897L26.5921 6.99894L26.7714 7.28779L26.9284 7.64329L27.0181 7.99879L27.0405 8.17653V8.50981L26.9732 8.90976L26.8163 9.33191L26.4799 9.99843L26.8387 10.0652L27.2199 10.1984L27.5338 10.3762L27.8252 10.5983L27.9823 10.7539L28.2288 11.0872L28.4082 11.4649L28.4978 11.7538L28.5427 11.9982V12.5093L28.4531 12.9313L28.296 13.3091L28.0943 13.6202L27.8477 13.8868L27.6459 14.0645L27.3095 14.2645L27.2423 14.3089L27.2648 14.7311L27.1974 15.1977L27.0853 15.531L26.906 15.8864L26.7266 16.1309L26.637 16.242H30.8522L31.5473 16.3086L32.0854 16.3975L32.6459 16.5308L33.2288 16.7085L33.8566 16.953L34.4172 17.2196L35.0226 17.5751L35.3813 17.8195L35.7626 18.1084L36.0091 18.3084L36.3006 18.575L36.3904 18.6416V18.6861L36.4801 18.7304L36.794 19.0638L36.9958 19.286L37.2423 19.597L37.5115 19.9525L37.758 20.3303L38.0272 20.7968L38.2065 21.1524L38.3858 21.5301L38.5876 22.0634L38.7222 22.4854L38.8791 23.1076L38.9912 23.7964L39.0361 24.2407L39.0584 24.6407V25.0851L39.0137 25.7739L38.9464 26.2849L38.7894 27.0404L38.5876 27.7069L38.3409 28.329L38.0272 28.9734L37.7132 29.5066L37.5338 29.7733L37.2199 30.1955L36.9733 30.4843L36.7715 30.7286L36.1885 31.3064L35.9419 31.5064L35.6728 31.7285L35.3365 31.9729L35.0002 32.1951L34.462 32.5062L33.8791 32.795L33.2513 33.0395L32.6908 33.2172L32.1526 33.3504L31.4799 33.4615L30.7624 33.5283L26.3678 33.5505L25.7177 33.5949L25.1795 33.6837L24.731 33.7948L24.2602 33.9505L23.7893 34.1504L23.3634 34.3725L22.9821 34.617L22.6235 34.8835L22.3095 35.1502L22.1974 35.2613H22.1525L22.1302 35.328L21.8611 35.5945L21.8386 35.639H21.7938L21.7489 35.7279L21.5024 36.039L21.2781 36.3723L21.0988 36.6834L20.897 37.061L20.6728 37.6164L20.5158 38.1497L20.3813 38.7496L20.2467 39.0163L20.1346 39.1496L19.8879 39.3052L19.6414 39.3718H19.3947L19.1706 39.3052L18.9463 39.1718L18.7893 38.9941L18.6996 38.8164L18.4754 37.8165L18.341 37.3944L18.1615 36.9499L17.9374 36.5055L17.6682 36.0835L17.3992 35.7279L17.1301 35.4168L16.7938 35.0835L16.5472 34.8835L16.2557 34.6614L15.8746 34.417L15.471 34.1948L15.045 33.9948L14.5517 33.8171L14.036 33.6837L13.6547 33.6171L13.2512 33.5726L12.8251 33.5505L8.20633 33.5283L7.69063 33.4838L7.10766 33.3949L6.50228 33.2616L5.96415 33.1061L5.35877 32.8839L4.91034 32.6839L4.48433 32.4617L4.0359 32.1951L3.67716 31.9507L3.29599 31.6618L3.0045 31.4174L2.78029 31.2174L2.1749 30.6175L1.97311 30.3732L1.70405 30.0399L1.39015 29.5954L1.18835 29.2623L0.964131 28.8623L0.695068 28.3068L0.470853 27.7291L0.291487 27.1514L0.156955 26.5737L0.0448481 25.8405L0 25.2851V24.4407L0.0672719 23.7297L0.179379 23.0854L0.336322 22.4633L0.605385 21.6856L0.807188 21.2413L0.986555 20.8634L1.30045 20.3303L1.56952 19.9304L1.83858 19.5748L2.08522 19.2637L2.35428 18.9749L2.53365 18.7749L2.71303 18.6193L2.93724 18.3972L3.18388 18.1973L3.5202 17.9306L3.94621 17.6417L4.37223 17.3752L5.02245 17.0418L5.47089 16.8419L6.09868 16.6197L6.59196 16.4864L7.19735 16.3531L7.89242 16.2642L8.1839 16.242H15.2915L15.0225 15.9754L14.6637 15.731L14.3275 15.5532L13.9687 15.4199L13.5651 15.331L13.3857 15.3088L12.444 15.2865L12.0404 15.1977L11.749 15.0866L11.3901 14.8866L11.0539 14.5978L10.8297 14.3312L10.6279 13.9756L10.5158 13.6646L10.4485 13.3757L10.4261 13.0869L10.314 12.9758L10.0897 12.7758L9.84304 12.487L9.64125 12.1314L9.52925 11.8204L9.46191 11.5315L9.43946 11.3761V11.0205L9.46191 10.8205L9.12561 10.6206L8.90139 10.4429L8.67718 10.2206L8.45296 9.90957L8.29601 9.57638L8.1839 9.1986L8.13905 8.82088L8.16148 8.46538L8.25116 8.08766L8.38569 7.75438L8.56507 7.46553L8.74444 7.24334L8.96865 7.02116L9.19287 6.86562L9.43946 6.73231L9.7086 6.62121L10.0673 6.53234L10.2243 6.51012L9.86549 5.79912L9.73105 5.44361L9.6637 5.08811V4.64374L9.73105 4.28824L9.84304 3.95496L10.045 3.59946L10.2243 3.37727L10.4709 3.13286L10.7624 2.93288L11.1211 2.75514L11.4126 2.66627L11.7041 2.62182Z" fill="#FDD057"/>
<path d="M11.8629 3.25383H12.3022L12.6097 3.3012L13.0051 3.44335L13.3126 3.63288L13.5982 3.86978L13.7959 4.083L14.0156 4.41466L14.3889 5.17276L14.4768 5.12538L14.5208 5.05431H14.5647L14.6087 4.95955L14.7844 4.77003L15.0919 4.53311L15.4434 4.34359L15.751 4.24883L16.0145 4.20145H16.4978L16.8493 4.27253L17.1569 4.39098L17.5083 4.60419L17.75 4.8174L17.9476 5.03061L18.1233 5.29121L18.2551 5.52811L18.4089 5.97824L18.4749 6.42836V6.99694L18.7604 7.18646L18.9801 7.37598L19.1119 7.49444L19.3096 7.75503L19.3975 7.89718L19.5292 7.87349L19.9027 7.80241H20.4959L20.9352 7.89718L21.3744 8.0867L21.682 8.27623L21.9456 8.48944L22.2312 8.77373L22.319 8.89218H22.363L22.5388 8.51313L22.7584 8.0867L22.9781 7.77873L23.2416 7.49444L23.4614 7.3286L23.7908 7.13908L24.1422 7.02063L24.4059 6.97324H24.8892L25.2406 7.04431L25.5482 7.16276L25.8118 7.30491L26.0534 7.49444L26.273 7.70765L26.4488 7.92086L26.6246 8.22884L26.7783 8.60789L26.8662 8.98694L26.8881 9.17646V9.53183L26.8223 9.95824L26.6685 10.4083L26.339 11.1191L26.6904 11.1901L27.0639 11.3323L27.3714 11.5218L27.657 11.7587L27.8107 11.9245L28.0524 12.28L28.2281 12.6827L28.3159 12.9906L28.36 13.2512V13.7961L28.2721 14.2462L28.1182 14.649L27.9205 14.9806L27.6789 15.2649L27.4812 15.4545L27.1518 15.6676L27.0858 15.715L27.1078 16.1651L27.0419 16.6626L26.9321 17.0181L26.7563 17.397L26.5806 17.6577L26.4927 17.7761H30.6225L31.3035 17.8471L31.8307 17.9419L32.3798 18.0841L32.951 18.2736L33.5661 18.5343L34.1152 18.8185L34.7083 19.1976L35.0599 19.4581L35.4332 19.7662L35.6749 19.9794L35.9604 20.2637L36.0483 20.3347V20.3821L36.1362 20.4295L36.4437 20.7848L36.6414 21.0217L36.8831 21.3534L37.1467 21.7324L37.3882 22.1352L37.6519 22.6327L37.8277 23.0117L38.0034 23.4145L38.201 23.983L38.3329 24.4331L38.4866 25.0965L38.5964 25.8309L38.6404 26.3047L38.6624 26.7312V27.205L38.6185 27.9393L38.5526 28.4843L38.3987 29.2897L38.201 30.0004L37.9594 30.6638L37.6519 31.3508L37.3444 31.9194L37.1686 32.2037L36.8611 32.6538L36.6195 32.9617L36.4218 33.2224L35.8506 33.8383L35.609 34.0516L35.3453 34.2884L35.0159 34.5491L34.6864 34.786L34.1592 35.1176L33.588 35.4255L32.9729 35.6862L32.4238 35.8757L31.8967 36.0179L31.2376 36.1363L30.5346 36.2073L26.2292 36.2311L25.5922 36.2785L25.0648 36.3732L24.6255 36.4916L24.1643 36.6574L23.703 36.8707L23.2856 37.1076L22.9121 37.3682L22.5607 37.6525L22.2532 37.9367L22.1433 38.0552H22.0993L22.0774 38.1263L21.8137 38.4106L21.7918 38.458H21.7479L21.7039 38.5527L21.4623 38.8844L21.2427 39.2398L21.0669 39.5715L20.8692 39.9742L20.6496 40.5664L20.4959 41.1351L20.364 41.7746L20.2322 42.0589L20.1224 42.2011L19.8807 42.367L19.6391 42.438H19.3975L19.1778 42.367L18.9581 42.2248L18.8044 42.0353L18.7165 41.8457L18.4968 40.7796L18.3651 40.3295L18.1893 39.8558L17.9696 39.3819L17.706 38.9318L17.4423 38.5527L17.1788 38.221L16.8493 37.8657L16.6076 37.6525L16.322 37.4156L15.9487 37.155L15.5533 36.9181L15.1359 36.7048L14.6526 36.5154L14.1474 36.3732L13.7739 36.3021L13.3786 36.2547L12.9611 36.2311L8.43599 36.2073L7.93075 36.1601L7.35961 36.0653L6.76651 35.9231L6.2393 35.7572L5.6462 35.5203L5.20686 35.3071L4.78949 35.0702L4.35016 34.786L3.99868 34.5253L3.62524 34.2174L3.33968 33.9568L3.12001 33.7435L2.5269 33.1039L2.3292 32.8433L2.0656 32.488L1.75807 32.0141L1.56036 31.6588L1.3407 31.2323L1.07709 30.6401L0.857419 30.0242L0.681688 29.4082L0.549886 28.7923L0.440049 28.0105L0.39612 27.4182V26.518L0.462014 25.7598L0.571851 25.0728L0.725618 24.4095L0.989221 23.5803L1.18693 23.1065L1.36266 22.7037L1.67019 22.1352L1.9338 21.7088L2.1974 21.3297L2.43904 20.9981L2.70264 20.69L2.87838 20.4769L3.05411 20.3111L3.27378 20.0741L3.51542 19.861L3.84492 19.5766L4.26229 19.2687L4.67966 18.9844L5.3167 18.6289L5.75604 18.4158L6.3711 18.1788L6.85438 18.0367L7.44748 17.8945L8.12845 17.7999L8.41402 17.7761H15.3775L15.114 17.4918L14.7624 17.2312L14.4329 17.0417L14.0814 16.8995L13.6861 16.8048L13.5103 16.7811L12.5877 16.7574L12.1923 16.6626L11.9067 16.5442L11.5553 16.331L11.2257 16.0231L11.0061 15.7388L10.8084 15.3597L10.6985 15.028L10.6327 14.72L10.6107 14.4121L10.5008 14.2936L10.2812 14.0804L10.0396 13.7724L9.84189 13.3934L9.73207 13.0618L9.66612 12.7537L9.64418 12.5879V12.2088L9.66612 11.9957L9.33665 11.7825L9.11696 11.5928L8.89729 11.356L8.67763 11.0243L8.52386 10.669L8.41402 10.2663L8.37009 9.86344L8.39206 9.48444L8.47992 9.0817L8.61172 8.72634L8.78746 8.41836L8.96319 8.18146L9.18286 7.94455L9.40246 7.77873L9.64418 7.63658L9.90771 7.51813L10.2592 7.42336L10.4129 7.39968L10.0615 6.64158L9.92978 6.26253L9.86383 5.88348V5.40967L9.92978 5.03061L10.0396 4.67526L10.2373 4.29621L10.4129 4.0593L10.6547 3.79871L10.9403 3.58549L11.2917 3.39597L11.5773 3.3012L11.8629 3.25383ZM8.39206 19.6477L7.84289 19.7188L7.40355 19.8136L6.92027 19.9556L6.41503 20.1452L5.79997 20.4531L5.40456 20.69L5.07506 20.927L4.72359 21.2113L4.48195 21.4245L4.26229 21.6376L3.86688 22.0641L3.66919 22.3248L3.49344 22.5616L3.22984 22.9643L3.03214 23.3197L2.72461 23.9594L2.54888 24.4331L2.3951 24.9306L2.2633 25.4993L2.17544 26.0441L2.13151 26.518V27.4182L2.1974 28.1052L2.30724 28.7211L2.48297 29.3845L2.70264 29.9768L2.96625 30.569L3.25182 31.0665L3.53738 31.493L3.73508 31.7536L3.99868 32.0615L4.43802 32.5354L4.67966 32.7485L5.03112 33.0328L5.40456 33.2934L5.75604 33.5067L6.1075 33.6961L6.65667 33.9331L7.13995 34.099L7.62321 34.2174L7.97469 34.2884L8.39206 34.3358L8.89729 34.3595L13.3786 34.3832L13.8618 34.4306L14.5208 34.5491L15.114 34.7149L15.685 34.928L16.1903 35.165L16.6955 35.4493L17.1569 35.7572L17.5742 36.0889L17.8598 36.3495L18.0355 36.5154L18.3211 36.7996L18.6066 37.1313L18.8482 37.463L19.0679 37.7709L19.3315 38.1974L19.5512 38.5765H19.5952L19.7929 38.1974L20.0784 37.7709L20.2761 37.4866L20.4738 37.2498L20.6276 37.0603L20.6934 36.9891V36.9418H20.7374L20.8911 36.7522L21.1767 36.468L21.4843 36.1837L21.8358 35.8994L22.1653 35.6625L22.6046 35.3783L22.9341 35.1887L23.4833 34.928L24.0764 34.7149L24.5596 34.5727L25.1527 34.4543L25.7678 34.3832L27.0639 34.3595H30.1173L30.8641 34.3121L31.5232 34.1936L32.0504 34.0516L32.6215 33.8383L33.0608 33.6251L33.5221 33.3645L33.8736 33.1276L34.2471 32.8433L34.5326 32.5827L34.972 32.1563L35.2136 31.872L35.4552 31.564L35.7188 31.1849L35.9385 30.806L36.1581 30.4031L36.3779 29.9056L36.6195 29.2186L36.7952 28.5079L36.9051 27.7973L36.927 27.513V26.5416L36.8611 25.902L36.7952 25.4993L36.6633 24.9306L36.4656 24.291L36.2679 23.8172L36.0923 23.4382L35.8286 22.9643L35.5651 22.5616L35.2576 22.1589L34.9939 21.8509L34.7303 21.5666L34.5546 21.4008L34.2031 21.0929L33.6759 20.7138L33.2145 20.4295L32.7972 20.2163L32.27 20.003L31.7428 19.8372L31.0618 19.6951L30.6006 19.6477H8.39206Z" fill="black"/>
<path d="M11.8835 4.35489L12.0853 4.37711L12.2647 4.4882L12.4215 4.66596L12.7579 5.28809L13.0943 5.93243L13.3185 6.35458L13.453 6.57678L13.5875 6.73231L13.8118 6.86562L14.0808 6.93229L14.3722 6.91006L14.5965 6.82119L14.8207 6.64344L15.0674 6.33238L15.3364 5.99909L15.5382 5.73247L15.7849 5.44361L15.9418 5.3103L16.0539 5.26587H16.3229L16.5247 5.37696L16.6144 5.48806L16.6817 5.64358V5.86578L16.5921 6.06575L16.3229 6.42125L16.2332 6.62121L16.2108 6.7101V6.99894L16.2781 7.22112L16.4126 7.44331L16.5696 7.57662L16.8162 7.68772L16.906 7.70994H17.2199L17.3543 7.68772H17.601L17.7804 7.77659L17.9149 7.93213L17.9821 8.06544V8.26541L17.8925 8.5987L17.9149 8.88754L18.0046 9.13194L18.1615 9.33191L18.4082 9.48745L18.7221 9.5985L18.879 9.73185L18.9686 9.90957V10.1318L18.8342 10.3984L18.61 10.6873L18.341 11.1094L18.0718 11.6649L17.9149 12.1314L17.8028 12.6204L17.7356 13.1535V13.7534L17.8253 14.3756L17.9374 14.82L18.0943 15.2422L18.2961 15.6865L18.5203 16.1086L18.5651 16.2197L18.5427 16.242H17.444L17.3768 16.1754L17.2422 15.9309L17.0629 15.6421L16.8162 15.3088L16.6144 15.0866L16.4575 14.9088L16.1885 14.6644L15.7624 14.3533L15.314 14.0867L14.9328 13.909L14.5068 13.7534L13.9462 13.6202L13.3633 13.5534L12.5561 13.5313L12.4215 13.4646L12.3094 13.3535L12.2198 13.2203L12.1974 13.1314V12.9536L12.2871 12.5981L12.2647 12.3759L12.1525 12.0871L12.0404 11.9537V11.9094L11.4126 11.5983L11.3005 11.4872L11.2108 11.2872V11.1094L11.3005 10.9094L11.5023 10.7094L11.6368 10.4874L11.7041 10.3095V9.95407L11.5919 9.68736L11.4575 9.50967L11.278 9.37635L11.0539 9.28748L10.2915 9.26526L10.1122 9.17639L9.97761 9.02085L9.93284 8.90976V8.62091L10.0001 8.48759L10.1569 8.33207L10.3364 8.26541L10.4709 8.2432L11.7937 8.15431L12.0853 8.06544L12.2871 7.9099L12.4215 7.73216L12.5112 7.48775L12.5337 7.37666V7.22112L12.444 6.93229L12.1974 6.44347L12.0404 6.17684L11.8611 5.82134L11.5247 5.19921L11.435 4.97702V4.75483L11.5472 4.53265L11.749 4.39933L11.8835 4.35489Z" fill="#83AD55"/>
<path d="M24.6189 7.86548H24.8881L25.0674 7.95435L25.2243 8.1321L25.2692 8.26541L25.2467 8.50981L25.0674 8.88754L24.7984 9.37635L24.4845 9.97631L24.2602 10.3984L24.1929 10.5762L24.1706 10.9094L24.2602 11.1984L24.3948 11.3761L24.5741 11.5315L24.7984 11.6204L25.1795 11.6649L26.1213 11.7315L26.4127 11.776L26.5921 11.8649L26.7266 12.0203L26.7938 12.2425L26.7491 12.4425L26.6145 12.6204L26.4352 12.7313L26.323 12.7536H25.7177L25.4934 12.8203L25.2692 12.9536L25.1346 13.1091L25.0225 13.3314L24.9777 13.5534L25.0002 13.8202L25.0898 14.0424L25.2692 14.2645L25.4261 14.4423L25.4934 14.62L25.471 14.82L25.4038 14.9533L25.2467 15.1088L24.8656 15.2644L24.6638 15.4199L24.5292 15.5976L24.462 15.731L24.4396 15.8421L24.4171 16.2197L21.2109 16.242H20.6056L20.5382 16.1754L20.2018 15.5532L19.9328 15.0644L19.7086 14.5978L19.5741 14.2201L19.4843 13.7534V13.1091L19.5517 12.7313L19.731 12.1982L19.9104 11.8649L20.0899 11.6204L20.3589 11.2427L20.5382 10.8873L20.6503 10.554L20.6952 10.3318V9.73185L20.6056 9.35413L20.471 9.02085L20.314 8.732L20.2692 8.62091L20.5158 8.68757L20.7849 8.82088L20.9867 8.99863L21.2109 9.28748L21.4127 9.53189L21.6817 9.88733L21.9284 10.1763L22.1078 10.3095L22.332 10.3984L22.4217 10.4206H22.6235L22.8925 10.354L23.1167 10.2206L23.2736 10.0429L23.5652 9.48745L23.8342 8.99863L24.1706 8.35429L24.3499 8.06544L24.5517 7.8877L24.6189 7.86548Z" fill="#729742"/>
<path d="M3.8341 0.866539H4.28254L4.7534 0.93319L5.13455 1.04428L5.40362 1.15538L5.6951 1.31091L6.009 1.5331L6.30049 1.79973L6.50228 2.02192L6.70407 2.31077L6.92829 2.73292L7.06282 3.11064L7.15251 3.59946V4.2438L7.10766 4.55487L6.99556 4.9548L6.8386 5.3103L6.65924 5.62137L6.43502 5.91021L6.18838 6.17684L5.94174 6.37681L5.60541 6.59899L5.22425 6.77675L4.88791 6.88784L4.57402 6.95449L4.14801 6.99894L3.69957 6.97672L3.31841 6.91006L2.84756 6.75453L2.42154 6.53234L2.15248 6.33238L1.92826 6.1324L1.70405 5.91021L1.45741 5.57693L1.32288 5.35474L1.14351 4.93258L1.0314 4.53265L0.986555 4.2438V3.62168L1.05381 3.22173L1.23319 2.68848L1.41257 2.3552L1.61436 2.06636L1.861 1.77751L2.13007 1.5331L2.4888 1.28869L2.84756 1.11095L3.20629 0.977632L3.63231 0.88876L3.8341 0.866539Z" fill="black"/>
<path d="M35.9867 8.75422H36.6145L36.9958 8.82088L37.4217 8.97641L37.7132 9.13194L37.9823 9.33191L38.2065 9.53189L38.4083 9.7541L38.6101 10.0652L38.767 10.3762L38.8791 10.7094L38.9464 11.065V11.6871L38.8566 12.1093L38.7222 12.4648L38.5204 12.8203L38.3186 13.0869L38.0047 13.398L37.6908 13.6202L37.2648 13.8202L36.8836 13.9313L36.6594 13.9756L36.4127 13.9979H36.1661L35.7849 13.9534L35.3813 13.8424L35.0002 13.6646L34.7312 13.4868L34.4172 13.2203L34.2155 12.998L33.9912 12.6647L33.8119 12.287L33.6998 11.8871L33.6549 11.6427V11.1316L33.7222 10.7539L33.8342 10.3984L34.0137 10.0429L34.193 9.77635L34.4397 9.48745L34.7312 9.24304L35.1347 8.99863L35.471 8.86532L35.8073 8.77644L35.9867 8.75422Z" fill="black"/>
<path d="M29.0584 19.6859H29.6863L30.202 19.7525L30.8073 19.8859L31.2781 20.0413L31.6817 20.2192L32.0405 20.3969L32.4666 20.6635L32.8252 20.9302L33.1392 21.1968L33.498 21.5523L33.6549 21.73L33.8791 22.0189L34.0809 22.3077L34.3051 22.6854L34.5517 23.1964L34.7312 23.6853L34.8656 24.1964L34.9554 24.7518L34.9777 24.974V25.485L34.9329 25.685L34.7984 25.9072L34.7087 26.0183L34.462 26.1738L34.2155 26.2404H33.9688L33.7445 26.1738L33.5204 26.0404L33.3409 25.8405L33.2513 25.6405L33.1616 24.8406L33.0944 24.463L32.9598 24.0185L32.7805 23.5965L32.5562 23.2187L32.2872 22.8632L32.0181 22.5744L31.7491 22.3299L31.3678 22.0634L31.0091 21.8634L30.6728 21.7078L30.2244 21.5744L29.8881 21.5078L29.0584 21.419L28.767 21.3079L28.5427 21.1079L28.4082 20.8857L28.3634 20.7302V20.3747L28.4306 20.1747L28.61 19.9304L28.8566 19.7525L29.0584 19.6859Z" fill="black"/>
<path d="M4.30495 23.1964H4.70855L4.93276 23.2854L5.11214 23.4186L5.26909 23.5965L5.35877 23.7964L5.40362 23.9964L5.44846 24.5741L5.56057 25.1295L5.6951 25.5294L5.91932 25.9961L6.18838 26.396L6.47986 26.7514L6.70407 26.9736L7.01798 27.2181L7.3543 27.4403L7.71305 27.618L8.16148 27.7958L8.72201 27.9291L9.43946 27.9957L9.73105 28.0625L9.93284 28.1957L10.0897 28.3513L10.2243 28.6179L10.2467 28.6845V29.0623L10.1346 29.3289L9.91039 29.5733L9.59648 29.7288L9.43946 29.751H9.08076L8.63233 29.7066L8.11663 29.6177L7.55609 29.4622L7.13009 29.3066L6.65923 29.0844L6.18838 28.7956L5.94174 28.6179L5.62783 28.3734L5.42604 28.1734L5.24666 28.018L5.08972 27.8402L4.88791 27.618L4.57402 27.1959L4.26012 26.6626L4.05832 26.2404L3.87895 25.7516L3.74442 25.2185L3.65473 24.6629L3.63231 24.3963V23.9519L3.69957 23.7075L3.8341 23.5075L3.92378 23.3964L4.12559 23.2632L4.30495 23.1964Z" fill="black"/>
<path d="M28.5203 0H29.0809L29.4173 0.0666635L29.7535 0.199966L30.0002 0.33328L30.3141 0.577688L30.471 0.733224L30.6952 1.04428L30.8522 1.35535L30.9642 1.71086L31.0091 1.97747V2.31077L30.9642 2.64405L30.8522 2.99955L30.6728 3.35505L30.471 3.62168L30.2244 3.86609L30.0002 4.02161L29.6638 4.19937L29.3275 4.31046L29.1033 4.35489L28.7221 4.37711L28.3409 4.33268L27.9823 4.22158L27.6235 4.04383L27.3544 3.84387L27.0853 3.57724L26.9284 3.35505L26.7491 3.02177L26.637 2.66627L26.5921 2.42186V1.95526L26.6593 1.59976L26.7938 1.24426L26.9732 0.93319L27.175 0.688782L27.3768 0.488816L27.6684 0.28885L27.9823 0.133315L28.3634 0.0222213L28.5203 0Z" fill="black"/>
<path d="M12.3768 34.9946H14.2826L14.5293 35.0391L14.7758 35.1725L14.9328 35.328L15.0897 35.639L15.1122 35.7501V36.0167L15.045 36.2389L14.8656 36.4834L14.7086 36.6166L14.5068 36.7055L14.1929 36.75H12.4215L12.175 36.7055L11.9507 36.5945L11.7937 36.4611L11.6593 36.2389L11.5919 36.0612L11.5696 35.9501L11.5919 35.6613L11.6817 35.4391L11.8611 35.2169L12.0629 35.0835L12.2198 35.0169L12.3768 34.9946Z" fill="#040000"/>
<path d="M3.87895 2.62182H4.21527L4.57402 2.7107L4.82066 2.84401L5.04487 3.02177L5.20183 3.24396L5.33636 3.53279L5.40362 3.7772V4.08827L5.31393 4.39933L5.15698 4.68818L4.91034 4.9548L4.6637 5.11033L4.32738 5.22143L4.23769 5.24365H3.87895L3.56505 5.15478L3.27356 4.97702L3.04935 4.77705L2.89239 4.53265L2.80271 4.31046L2.75786 4.11048V3.73277L2.82513 3.46614L2.98208 3.17729L3.18388 2.95511L3.4081 2.79957L3.63231 2.68848L3.87895 2.62182Z" fill="#729742"/>
<path d="M30.8073 8.66535H31.1885L31.4352 8.75422L31.6594 8.93198L31.7938 9.13194L31.8835 9.37635V9.66524L31.7938 9.93182L31.6594 10.1095L31.4576 10.2874L31.2334 10.3762L31.1437 10.3984H30.8522L30.628 10.3318L30.4262 10.1984L30.2467 9.99843L30.1347 9.73185L30.1123 9.62075V9.443L30.1571 9.24304L30.2692 9.02085L30.4262 8.84311L30.6504 8.70979L30.8073 8.66535Z" fill="#040000"/>
<path d="M21.9732 1.75529H22.3768L22.601 1.84417L22.7803 1.97747L22.9149 2.13301L23.027 2.3552L23.0495 2.44408V2.79957L22.9598 3.04398L22.8028 3.24396L22.6235 3.37727L22.4217 3.46614L22.332 3.48836H22.0181L21.7938 3.4217L21.5696 3.26618L21.435 3.11064L21.3229 2.88845L21.2781 2.62182L21.3229 2.3552L21.4575 2.08857L21.6368 1.91082L21.8835 1.77751L21.9732 1.75529Z" fill="black"/>
<path d="M35.2244 4.37711H35.6055L35.8522 4.46598L36.054 4.62152L36.1885 4.79928L36.2783 4.99924L36.3006 5.08811V5.39919L36.2109 5.64358L36.0765 5.84356L35.8747 5.99909L35.6728 6.08797L35.5608 6.11019H35.2469L35.0002 6.0213L34.8208 5.88799L34.6638 5.71025L34.5517 5.44361L34.5294 5.33252L34.5517 5.04368L34.6638 4.77705L34.8208 4.5993L35.0002 4.46598L35.2244 4.37711Z" fill="black"/>
<path d="M2.62333 12.2425H2.86997L3.11661 12.3093L3.34082 12.4648L3.49778 12.6425L3.60989 12.8869L3.63231 12.9758V13.2646L3.54263 13.5091L3.4081 13.709L3.22872 13.8645L2.95967 13.9756H2.53365L2.30943 13.8868L2.13007 13.7534L1.97311 13.5534L1.88343 13.3314L1.861 13.2424V13.0203L1.95069 12.7313L2.08522 12.5314L2.26458 12.3759L2.44396 12.287L2.62333 12.2425Z" fill="black"/>
<path d="M35.3365 34.9946H35.5159L35.7849 35.0614L36.0091 35.2169L36.1661 35.3946L36.2558 35.5724L36.3006 35.7279V36.039L36.1885 36.3278L35.9867 36.55L35.8073 36.6611L35.628 36.7277L35.3813 36.75L35.1347 36.7055L34.9105 36.5945L34.7535 36.4611L34.619 36.2389L34.5517 36.0612L34.5294 35.7945L34.5966 35.5279L34.7535 35.2835L34.9329 35.128L35.1795 35.0169L35.3365 34.9946Z" fill="black"/>
<path d="M12.3094 27.9957H12.601L12.8251 28.0625L13.0269 28.1957L13.2064 28.3957L13.3185 28.6401L13.3408 28.7067V29.04L13.2512 29.2623L13.1167 29.4622L12.9597 29.5954L12.7579 29.7066L12.5337 29.751L12.2647 29.7288L11.9956 29.6177L11.7714 29.4177L11.6368 29.1955L11.5919 29.0623V28.6845L11.6817 28.4401L11.8611 28.2179L12.0853 28.0625L12.3094 27.9957Z" fill="black"/>
<path d="M36.1885 10.4874L36.5024 10.5095L36.7715 10.6206L36.9958 10.8205L37.1077 10.9984L37.1975 11.2872L37.1751 11.576L37.0181 11.8871L36.8163 12.0871L36.5922 12.1982L36.4127 12.2425H36.1437L35.897 12.1537L35.7177 12.0203L35.5383 11.8204L35.4487 11.6204L35.4262 11.5093V11.2205L35.4934 10.9984L35.6504 10.7762L35.8747 10.5983L36.0765 10.5095L36.1885 10.4874Z" fill="#729742"/>
<path d="M28.7445 1.73308L28.9239 1.75529L29.1033 1.86638L29.2155 2.04414L29.2378 2.2441L29.1706 2.42186L28.9912 2.57738L28.7445 2.62182L28.5652 2.55517L28.4531 2.44408L28.3858 2.3552L28.3634 2.28854V2.06636L28.4531 1.91082L28.61 1.77751L28.7445 1.73308Z" fill="#739844"/>
<path d="M18.3857 16.0198H18.4754L18.5651 16.2197L18.5427 16.242H17.444V16.2197L17.7804 16.1975H18.2736L18.3185 16.0643H18.3633L18.3857 16.0198Z" fill="#68855A"/>
<path d="M18.8118 9.68736L18.9239 9.79847L18.9686 9.90957V10.1318L18.9239 10.2429L18.9014 10.154L18.8118 10.1318L18.7893 9.99843V9.84296L18.8118 9.79847H18.8567L18.8118 9.68736Z" fill="#709347"/>
<path d="M17.8253 7.84325L17.9149 7.93213L17.9821 8.06544V8.26541L17.9374 8.33207L17.8028 8.1321L17.7804 8.021L17.7356 7.97657L17.8028 7.9099L17.8253 7.84325Z" fill="#719446"/>
<path d="M3.5202 2.73292L3.60989 2.75514L3.4081 2.86623L3.20629 3.02177L3.11661 3.08842L3.02692 3.24396L2.89239 3.48836L2.82513 3.71055H2.80271V3.53279L2.98208 3.17729L3.18388 2.95511L3.4081 2.79957L3.5202 2.73292Z" fill="#7BA055"/>
<path d="M10.4709 9.15417H10.7175L10.8969 9.17639L10.9193 9.24304L10.9642 9.26526H10.2915L10.2243 9.22082L10.314 9.1986L10.3364 9.22082H10.4709V9.15417Z" fill="#6F914A"/>
<path d="M35.9644 10.554L36.054 10.5762L35.7849 10.7317L35.628 10.9094L35.4934 11.1761H35.471L35.4934 10.9984L35.6504 10.7762L35.8747 10.5983L35.9644 10.554Z" fill="#76995C"/>
<path d="M35.471 11.1984L35.4934 11.2427V11.5538L35.5831 11.776L35.6952 11.9537L35.6055 11.9094L35.4934 11.7315L35.4262 11.5093V11.2205L35.471 11.1984Z" fill="#789C56"/>
<path d="M12.87 13.4868H13.4082L13.4306 13.5091L13.6324 13.5313V13.5534L12.8028 13.5313L12.87 13.4868Z" fill="#709446"/>
<path d="M28.9015 2.48851L28.9912 2.51073V2.57738L28.7445 2.62182L28.5876 2.57738V2.53295L28.8566 2.51073L28.9015 2.48851Z" fill="#7EA557"/>
<path d="M17.3543 7.68772H17.601L17.6682 7.73216L17.5561 7.75438L17.3992 7.73216L17.175 7.77659H16.9956V7.73216L17.3543 7.68772Z" fill="#6B8A52"/>
<path d="M3.5202 2.73292L3.60989 2.75514L3.4081 2.86623L3.20629 3.02177L3.04935 3.13286L3.09418 3.04398L3.29599 2.86623L3.5202 2.73292Z" fill="#789C5A"/>
<path d="M4.48433 2.7107L4.61887 2.73292L4.88791 2.88845L4.97761 2.97733L4.95519 3.02177L4.7534 2.86623L4.48433 2.73292V2.7107Z" fill="#779B58"/>
<path d="M29.193 2.11079H29.2378L29.2155 2.33297L29.1257 2.46629L29.0135 2.55517V2.48851L29.1257 2.37742L29.1481 2.2441H29.193V2.11079Z" fill="#75965C"/>
<path d="M35.628 10.8428V10.9094L35.4934 11.1761H35.471L35.4934 10.9984L35.5831 10.865L35.628 10.8428Z" fill="#7CA356"/>
<path d="M12.5561 4.9548L12.6458 5.06589L12.6682 5.15478L12.601 5.19921L12.5561 5.11033L12.5786 5.08811H12.5561V4.9548Z" fill="#709347"/>
<path d="M145.381 41.6927C115.028 35.2637 58.5117 39.2111 48.95 43.548C86.6006 36.7922 141.4 43.6478 145.442 44.8223C148.675 45.7619 150.224 42.7186 145.381 41.6927Z" fill="#FDA757"/>
</svg>
