<svg width="188" height="48" viewBox="0 0 188 48" fill="none" xmlns="http://www.w3.org/2000/svg">
<path d="M52.6305 41.2224V38.3748C53.2921 38.3461 53.8386 38.2598 54.2701 38.116C54.7302 37.9721 55.0754 37.6414 55.3055 37.1236C55.5644 36.6059 55.6938 35.7717 55.6938 34.6212V18.0968C55.6938 17.3202 55.7083 16.5723 55.737 15.8533C55.7945 15.1342 55.8377 14.5877 55.8664 14.2138C55.4062 14.2425 54.8309 14.2714 54.1406 14.3001C53.4503 14.3001 52.947 14.3145 52.6305 14.3432V11.0211C54.6728 10.9924 56.7149 10.9779 58.7571 10.9779C60.7993 10.9779 62.8414 10.9635 64.8837 10.9348C67.4148 10.9061 69.6151 11.1937 71.4848 11.7977C73.3544 12.4017 74.7925 13.3796 75.7993 14.7315C76.806 16.0834 77.2806 17.9098 77.223 20.2109C77.1943 21.4189 76.8923 22.5694 76.317 23.6625C75.7705 24.7555 74.9364 25.719 73.8146 26.5532C72.7216 27.3873 71.3266 28.0488 69.6296 28.5378C70.176 28.768 70.7082 29.1419 71.2259 29.6596C71.7724 30.1773 72.2327 30.7238 72.6066 31.2991L74.6344 34.3192C75.2671 35.2971 75.828 36.0737 76.317 36.649C76.806 37.2243 77.2949 37.6558 77.7839 37.9434C78.2729 38.2022 78.8338 38.3461 79.4666 38.3748V41.2224H72.3477C71.8299 40.8485 71.3122 40.3163 70.7945 39.626C70.3055 38.907 69.7734 38.0872 69.1981 37.1668L66.0054 31.9894C65.6315 31.4141 65.3007 30.9252 65.0131 30.5225C64.7542 30.1198 64.4809 29.7746 64.1933 29.487C63.7332 29.487 63.3449 29.487 63.0284 29.487C62.712 29.487 62.3525 29.487 61.9498 29.487V34.1035C61.9498 34.9088 61.9354 35.6711 61.9067 36.3902C61.8779 37.1092 61.8348 37.6558 61.7772 38.0297C62.0937 38.0009 62.4963 37.9865 62.9853 37.9865C63.4743 37.9578 63.9489 37.9434 64.4091 37.9434C64.8981 37.9147 65.2432 37.9002 65.4445 37.9002V41.2224H52.6305ZM64.0208 26.3806C65.6315 26.3806 66.9259 26.1504 67.9038 25.6903C68.8817 25.2013 69.5864 24.4822 70.0179 23.533C70.478 22.5551 70.7082 21.3327 70.7082 19.8657C70.7082 18.4851 70.4925 17.4065 70.061 16.6299C69.6296 15.8246 69.0831 15.2348 68.4215 14.861C67.7888 14.4582 67.1416 14.2138 66.48 14.1275C65.8184 14.0125 65.2719 13.9549 64.8405 13.9549C64.2365 13.9549 63.7187 14.0268 63.2873 14.1706C62.8558 14.3145 62.5251 14.6308 62.295 15.1198C62.0648 15.6088 61.9498 16.3566 61.9498 17.3633V26.208C62.2662 26.2367 62.597 26.2799 62.9421 26.3374C63.2873 26.3662 63.6469 26.3806 64.0208 26.3806ZM91.8006 41.9127C89.7296 41.9127 87.86 41.4668 86.1917 40.5752C84.5235 39.6836 83.2003 38.418 82.2224 36.7785C81.2733 35.1103 80.7987 33.1543 80.7987 30.9108C80.7987 28.5234 81.2877 26.4382 82.2656 24.6548C83.2723 22.8427 84.5954 21.4477 86.2349 20.4698C87.9031 19.463 89.7152 18.9597 91.6711 18.9597C93.7421 18.9597 95.5973 19.4056 97.2368 20.2972C98.8763 21.1888 100.171 22.4688 101.12 24.1371C102.069 25.7766 102.544 27.7468 102.544 30.0479C102.544 32.464 102.083 34.5637 101.163 36.347C100.242 38.1304 98.977 39.511 97.3662 40.4889C95.7554 41.4381 93.9002 41.9127 91.8006 41.9127ZM91.9731 38.8494C93.1236 38.8207 93.9865 38.418 94.5618 37.6414C95.1658 36.8648 95.5829 35.8869 95.813 34.7075C96.0432 33.5282 96.1582 32.3346 96.1582 31.1265C96.1582 30.0623 96.0719 28.9837 95.8993 27.8907C95.7554 26.7976 95.511 25.8053 95.1658 24.9137C94.8207 24.0221 94.3461 23.3029 93.7421 22.7564C93.1668 22.21 92.4477 21.9511 91.5848 21.9798C90.4631 22.0086 89.5715 22.4113 88.9099 23.1879C88.2771 23.9645 87.8168 24.9424 87.5292 26.1217C87.2704 27.2722 87.1409 28.4803 87.1409 29.7459C87.1409 31.2128 87.2991 32.651 87.6155 34.0603C87.9319 35.4697 88.4353 36.6346 89.1256 37.5551C89.8446 38.4467 90.7938 38.8781 91.9731 38.8494ZM115.591 41.9127C114.354 41.9127 113.146 41.7545 111.967 41.4381C110.787 41.1217 109.867 40.7191 109.205 40.23L109.292 41.5244H106.013L105.84 34.1035H108.645C108.731 34.9664 109.076 35.7574 109.68 36.4765C110.284 37.1955 111.075 37.7708 112.053 38.2022C113.031 38.605 114.124 38.8063 115.332 38.8063C115.821 38.8063 116.281 38.7344 116.713 38.5905C117.173 38.4467 117.547 38.2167 117.834 37.9002C118.151 37.5551 118.309 37.1381 118.309 36.649C118.309 36.1026 118.108 35.6567 117.705 35.3115C117.331 34.9664 116.77 34.6357 116.022 34.3192C115.303 34.0028 114.397 33.6433 113.304 33.2406C112.413 32.8954 111.506 32.5359 110.586 32.162C109.694 31.7881 108.86 31.3422 108.084 30.8245C107.336 30.278 106.732 29.6164 106.272 28.8398C105.811 28.0345 105.581 27.0565 105.581 25.906C105.581 25.0718 105.739 24.2521 106.056 23.4468C106.372 22.6126 106.861 21.8648 107.523 21.2032C108.184 20.5129 109.018 19.9665 110.025 19.5637C111.061 19.161 112.283 18.9597 113.692 18.9597C114.469 18.9597 115.346 19.0891 116.324 19.348C117.331 19.5782 118.179 19.9376 118.87 20.4266V19.1754H122.149V26.812H119.344C119.172 25.8053 118.812 24.9424 118.266 24.2234C117.748 23.5043 117.072 22.9577 116.238 22.5839C115.404 22.1811 114.469 21.9798 113.434 21.9798C112.715 21.9798 112.053 22.1524 111.449 22.4976C110.874 22.8427 110.586 23.4323 110.586 24.2665C110.586 24.9281 110.816 25.4601 111.276 25.8629C111.737 26.2367 112.369 26.5532 113.175 26.812C113.98 27.0709 114.872 27.3729 115.85 27.7181C117.317 28.2071 118.611 28.7823 119.733 29.4439C120.883 30.1055 121.789 30.9108 122.451 31.86C123.112 32.7804 123.443 33.9165 123.443 35.2684C123.443 36.764 123.069 38.0009 122.321 38.9788C121.574 39.9567 120.596 40.6902 119.388 41.1792C118.208 41.6682 116.943 41.9127 115.591 41.9127ZM135.538 41.9127C133.813 41.9127 132.419 41.582 131.353 40.9204C130.318 40.2588 129.556 39.2233 129.067 37.8139C128.607 36.4046 128.377 34.5925 128.377 32.3777V27.4161C128.377 26.8983 128.391 26.3087 128.42 25.6471C128.449 24.9568 128.477 24.2952 128.506 23.6625C128.046 23.6912 127.5 23.72 126.867 23.7488C126.263 23.7488 125.802 23.7632 125.486 23.7919V20.5129H125.918C127.701 20.5129 129.11 20.369 130.146 20.0815C131.181 19.7939 131.843 19.5062 132.13 19.2186H134.503V32.4209C134.503 34.2905 134.748 35.6854 135.236 36.6059C135.726 37.4975 136.503 37.9434 137.566 37.9434C138.315 37.9434 139.063 37.7421 139.81 37.3393C140.586 36.9079 141.22 36.4189 141.708 35.8724V27.4161C141.708 26.8983 141.723 26.3087 141.751 25.6471C141.781 24.9568 141.824 24.2952 141.881 23.6625C141.421 23.6912 140.875 23.72 140.241 23.7488C139.637 23.7488 139.177 23.7632 138.861 23.7919V20.5129H139.896C141.248 20.5129 142.442 20.369 143.477 20.0815C144.513 19.765 145.175 19.4774 145.462 19.2186H147.835V34.2761C147.835 34.6788 147.821 35.254 147.792 36.0019C147.763 36.7209 147.72 37.4112 147.662 38.0728C148.123 38.0152 148.626 37.9865 149.172 37.9865C149.748 37.9578 150.179 37.9434 150.467 37.9434V41.2224H142.269C142.241 40.8485 142.198 40.4745 142.14 40.1006C142.111 39.7267 142.068 39.3527 142.01 38.9788C141.119 39.7267 140.155 40.4026 139.12 41.0066C138.114 41.6107 136.919 41.9127 135.538 41.9127ZM153.279 41.2224V38.418C154.084 38.418 154.66 38.2598 155.005 37.9434C155.35 37.6269 155.566 37.1812 155.652 36.6059C155.767 36.0019 155.825 35.326 155.825 34.5781V27.3298C155.825 26.812 155.838 26.2367 155.868 25.604C155.896 24.9424 155.939 24.2952 155.997 23.6625C155.536 23.6912 154.99 23.72 154.356 23.7488C153.754 23.7488 153.293 23.7632 152.977 23.7919V20.5129C154.3 20.5129 155.421 20.441 156.342 20.2972C157.262 20.1533 157.982 19.9807 158.5 19.7794C159.046 19.5782 159.419 19.3911 159.621 19.2186H161.735C161.792 19.5924 161.822 19.8657 161.822 20.0383C161.822 20.2109 161.822 20.3835 161.822 20.5561C161.85 20.6999 161.908 20.9731 161.994 21.3758C162.569 20.9156 163.231 20.5129 163.979 20.1678C164.726 19.7939 165.474 19.5062 166.222 19.3049C166.969 19.0747 167.631 18.9597 168.207 18.9597C170.852 18.9597 172.722 19.7219 173.816 21.2464C174.938 22.742 175.499 25.1581 175.499 28.4947V34.2761C175.499 34.6788 175.484 35.254 175.455 36.0019C175.426 36.7209 175.383 37.4112 175.326 38.0728C175.814 38.0152 176.332 37.9865 176.878 37.9865C177.425 37.9578 177.842 37.9434 178.13 37.9434V41.2224H166.827V38.418C167.631 38.418 168.207 38.2598 168.552 37.9434C168.926 37.6269 169.156 37.1812 169.243 36.6059C169.357 36.0019 169.415 35.326 169.415 34.5781L169.372 28.4515C169.372 26.5819 169.098 25.2013 168.552 24.3096C168.035 23.3892 167.142 22.929 165.877 22.929C165.157 22.929 164.439 23.0872 163.72 23.4036C163.03 23.72 162.439 24.0939 161.951 24.5254C161.951 24.9281 161.951 25.3451 161.951 25.7766C161.951 26.1793 161.951 26.5819 161.951 26.9846V34.2761C161.951 34.6788 161.936 35.254 161.908 36.0019C161.878 36.7209 161.835 37.4112 161.779 38.0728C162.238 38.0152 162.741 37.9865 163.289 37.9865C163.863 37.9578 164.294 37.9434 164.583 37.9434V41.2224H153.279Z" fill="#060121"/>
<path d="M183.986 41.9127C183.066 41.9127 182.303 41.582 181.699 40.9204C181.125 40.2588 180.836 39.4679 180.836 38.5474C180.836 37.6269 181.153 36.836 181.786 36.1744C182.419 35.5128 183.153 35.1821 183.986 35.1821C184.879 35.1821 185.612 35.5128 186.186 36.1744C186.79 36.836 187.092 37.6269 187.092 38.5474C187.092 39.4679 186.805 40.2588 186.229 40.9204C185.683 41.582 184.935 41.9127 183.986 41.9127Z" fill="#FDA757"/>
<path d="M12.3714 2.79661H12.8455L13.1773 2.84402L13.6039 2.98621L13.9357 3.17581L14.2438 3.41281L14.4571 3.62611L14.6941 3.95792L15.0969 4.71632L15.1917 4.66892L15.2392 4.59782H15.2865L15.334 4.50301L15.5235 4.31342L15.8553 4.07642L16.2346 3.88681L16.5664 3.79202L16.8508 3.74461H17.3722L17.7514 3.81572L18.0832 3.93422L18.4624 4.14751L18.7231 4.36082L18.9364 4.57412L19.126 4.83482L19.2682 5.07182L19.4341 5.52212L19.5051 5.97243V6.54122L19.8133 6.73083L20.0502 6.92042L20.1925 7.03893L20.4058 7.29963L20.5005 7.44183L20.6428 7.41813L21.0457 7.34703H21.6855L22.1596 7.44183L22.6336 7.63144L22.9655 7.82103L23.2498 8.03434L23.5579 8.31873L23.6527 8.43723H23.7001L23.8897 8.05803L24.1267 7.63144L24.3638 7.32333L24.6481 7.03893L24.8851 6.87303L25.2407 6.68343L25.6198 6.56493L25.9042 6.51753H26.4257L26.8048 6.58863L27.1366 6.70713L27.421 6.84933L27.6817 7.03893L27.9187 7.25224L28.1083 7.46553L28.2979 7.77364L28.4638 8.15284L28.5586 8.53204L28.5824 8.72164V9.07714L28.5112 9.50374L28.3453 9.95404L27.9898 10.665L28.3691 10.7362L28.7719 10.8783L29.1037 11.068L29.4118 11.3049L29.5778 11.4709L29.8384 11.8264L30.028 12.2293L30.1228 12.5373L30.1702 12.7981V13.3432L30.0754 13.7934L29.9095 14.1964L29.6962 14.5282L29.4355 14.8125L29.2223 15.0021L28.8667 15.2154L28.7957 15.2629L28.8194 15.7132L28.7482 16.2108L28.6297 16.5664L28.4401 16.9455L28.2506 17.2063L28.1558 17.3248H32.6114L33.3461 17.3958L33.9149 17.4906L34.5073 17.6329L35.1235 17.8224L35.7871 18.0832L36.3797 18.3675L37.0196 18.7468L37.3987 19.0074L37.8017 19.3156L38.0623 19.5289L38.3704 19.8133L38.4653 19.8843V19.9318L38.5601 19.9791L38.8919 20.3347L39.1052 20.5717L39.3658 20.9035L39.6503 21.2826L39.9109 21.6856L40.1954 22.1833L40.385 22.5626L40.5746 22.9654L40.7879 23.5343L40.9301 23.9844L41.0959 24.6481L41.2145 25.3829L41.2619 25.8568L41.2855 26.2834V26.7574L41.2382 27.4921L41.1671 28.0372L41.0012 28.8431L40.7879 29.554L40.5271 30.2176L40.1954 30.905L39.8636 31.4737L39.6739 31.7582L39.3421 32.2085L39.0815 32.5166L38.8682 32.7772L38.2519 33.3935L37.9913 33.6068L37.7068 33.8437L37.3514 34.1044L36.9958 34.3415L36.427 34.6733L35.8109 34.9814L35.1472 35.2421L34.5548 35.4317L33.986 35.5738L33.2749 35.6923L32.5165 35.7635L27.8713 35.7872L27.1841 35.8345L26.6152 35.9293L26.1412 36.0478L25.6435 36.2138L25.1458 36.4271L24.6956 36.664L24.2926 36.9248L23.9134 37.2091L23.5816 37.4936L23.4631 37.6121H23.4156L23.3921 37.6832L23.1076 37.9675L23.0838 38.015H23.0365L22.9891 38.1098L22.7284 38.4416L22.4914 38.7971L22.3018 39.1289L22.0885 39.5318L21.8515 40.1242L21.6855 40.693L21.5434 41.3329L21.4012 41.6174L21.2827 41.7595L21.0219 41.9255L20.7613 41.9965H20.5005L20.2637 41.9255L20.0266 41.7833L19.8607 41.5937L19.7659 41.4041L19.5288 40.3376L19.3867 39.8873L19.197 39.4133L18.9601 38.9392L18.6757 38.489L18.3913 38.1098L18.1068 37.7779L17.7514 37.4224L17.4907 37.2091L17.1826 36.9722L16.7797 36.7115L16.3531 36.4744L15.9028 36.2611L15.3814 36.0716L14.8363 35.9293L14.4333 35.8583L14.0067 35.8108L13.5564 35.7872L8.67424 35.7635L8.12914 35.716L7.51294 35.6212L6.87303 35.479L6.30422 35.3132L5.66432 35.0761L5.19032 34.8628L4.74003 34.6258L4.26603 34.3415L3.88683 34.0807L3.48392 33.7726L3.17581 33.5119L2.93882 33.2986L2.29891 32.6587L2.08562 32.3981L1.80121 32.0425L1.46941 31.5685L1.2561 31.2131L1.01911 30.7865L0.7347 30.1939L0.497701 29.5778L0.308107 28.9615L0.165905 28.3453L0.0474053 27.5632L0 26.9707V26.0701L0.0711077 25.3117L0.189608 24.6245L0.355499 23.9608L0.639904 23.1313L0.853213 22.6573L1.04281 22.2543L1.3746 21.6856L1.65901 21.259L1.94341 20.8798L2.20412 20.548L2.48852 20.2399L2.67811 20.0266L2.86772 19.8606L3.10472 19.6237L3.36542 19.4104L3.72092 19.1259L4.17122 18.8179L4.62153 18.5335L5.30882 18.178L5.78283 17.9647L6.44643 17.7276L6.96783 17.5855L7.60773 17.4433L8.34243 17.3485L8.65054 17.3248H16.1634L15.8791 17.0404L15.4998 16.7797L15.1444 16.5901L14.7651 16.4479L14.3385 16.3531L14.149 16.3294L13.1535 16.3056L12.7269 16.2108L12.4189 16.0923L12.0396 15.879L11.6842 15.571L11.4472 15.2866L11.2339 14.9073L11.1154 14.5755L11.0443 14.2674L11.0206 13.9594L10.9021 13.8408L10.665 13.6276L10.4043 13.3195L10.191 12.9402L10.0726 12.6084L10.0014 12.3003L9.97769 12.1345V11.7552L10.0014 11.5419L9.64594 11.3286L9.40894 11.139L9.17195 10.902L8.93495 10.5702L8.76904 10.2148L8.65054 9.81184L8.60314 9.40894L8.62684 9.02974L8.72164 8.62684L8.86384 8.27134L9.05345 7.96323L9.24304 7.72623L9.48004 7.48923L9.71704 7.32333L9.97769 7.18113L10.2622 7.06263L10.6413 6.96783L10.8073 6.94413L10.428 6.18572L10.2859 5.80652L10.2147 5.42732V4.95332L10.2859 4.57412L10.4043 4.21862L10.6177 3.83942L10.8073 3.60242L11.0679 3.34172L11.3761 3.12841L11.7552 2.93882L12.0633 2.84402L12.3714 2.79661Z" fill="#FDD057"/>
<path d="M12.5393 3.47075H13.0036L13.3287 3.52128L13.7466 3.67291L14.0717 3.87507L14.3736 4.12776L14.5826 4.3552L14.8147 4.70898L15.2094 5.51761L15.3023 5.46707L15.3488 5.39127H15.3952L15.4417 5.29019L15.6274 5.08803L15.9524 4.83532L16.324 4.63316L16.6491 4.53208L16.9276 4.48155H17.4385L17.8101 4.55736L18.1351 4.68371L18.5066 4.91114L18.7621 5.13856L18.9709 5.36599L19.1567 5.64396L19.296 5.89666L19.4586 6.37679L19.5283 6.85692V7.4634L19.8301 7.66556L20.0624 7.86771L20.2016 7.99407L20.4106 8.27203L20.5035 8.42365L20.6428 8.39839L21.0376 8.32257H21.6645L22.1289 8.42365L22.5932 8.62581L22.9183 8.82797L23.197 9.0554L23.4988 9.35864L23.5916 9.48499H23.6381L23.8239 9.08067L24.0561 8.62581L24.2882 8.29731L24.5668 7.99407L24.7991 7.81717L25.1474 7.61501L25.5188 7.48867L25.7975 7.43812H26.3084L26.6798 7.51393L27.0049 7.64028L27.2836 7.79191L27.5389 7.99407L27.7711 8.22149L27.9569 8.44892L28.1427 8.77743L28.3052 9.18175L28.3981 9.58607L28.4212 9.78823V10.1673L28.3517 10.6221L28.1891 11.1022L27.8408 11.8604L28.2123 11.9361L28.607 12.0878L28.9321 12.2899L29.234 12.5426L29.3964 12.7195L29.6519 13.0986L29.8376 13.5282L29.9305 13.8566L29.977 14.1346V14.7159L29.8841 15.196L29.7215 15.6256L29.5125 15.9793L29.2572 16.2826L29.0482 16.4848L28.6999 16.7121L28.6302 16.7627L28.6534 17.2428L28.5838 17.7735L28.4678 18.1526L28.282 18.5568L28.0962 18.8348L28.0033 18.9612H32.3686L33.0884 19.037L33.6457 19.1381L34.2261 19.2898L34.8298 19.4919L35.48 19.7699L36.0604 20.0731L36.6874 20.4775L37.0589 20.7553L37.4536 21.0839L37.7091 21.3114L38.0108 21.6146L38.1037 21.6904V21.7409L38.1966 21.7915L38.5217 22.1705L38.7307 22.4231L38.9862 22.7769L39.2647 23.1813L39.5201 23.6108L39.7988 24.1415L39.9846 24.5459L40.1704 24.9754L40.3792 25.5819L40.5186 26.062L40.6811 26.7696L40.7972 27.5529L40.8437 28.0584L40.8669 28.5133V29.0186L40.8205 29.802L40.7508 30.3832L40.5882 31.2423L40.3792 32.0005L40.1238 32.708L39.7988 33.4408L39.4737 34.0474L39.2879 34.3506L38.9628 34.8308L38.7075 35.1592L38.4985 35.4372L37.8947 36.0942L37.6394 36.3217L37.3607 36.5743L37.0124 36.8524L36.6642 37.105L36.1069 37.4588L35.5032 37.7872L34.853 38.0653L34.2726 38.2674L33.7154 38.419L33.0187 38.5454L32.2757 38.6212L27.7247 38.6465L27.0514 38.6971L26.494 38.798L26.0297 38.9244L25.5421 39.1013L25.0545 39.3287L24.6133 39.5814L24.2185 39.8594L23.8471 40.1626L23.522 40.4659L23.4059 40.5922H23.3594L23.3362 40.6681L23.0575 40.9713L23.0344 41.0219H22.988L22.9415 41.1229L22.6861 41.4767L22.4539 41.8558L22.2681 42.2096L22.0592 42.6391L21.827 43.2708L21.6645 43.8774L21.5251 44.5596L21.3858 44.8628L21.2697 45.0145L21.0142 45.1914L20.7589 45.2672H20.5035L20.2713 45.1914L20.039 45.0397L19.8766 44.8376L19.7837 44.6354L19.5515 43.4983L19.4122 43.0181L19.2264 42.5128L18.9943 42.0073L18.7156 41.5272L18.4369 41.1229L18.1583 40.7691L17.8101 40.3901L17.5546 40.1626L17.2527 39.91L16.8581 39.632L16.4401 39.3793L15.9989 39.1518L15.4881 38.9497L14.954 38.798L14.5592 38.7223L14.1414 38.6717L13.7001 38.6465L8.917 38.6212L8.38295 38.5707L7.77925 38.4696L7.15233 38.3179L6.59506 38.141L5.96814 37.8884L5.50376 37.6609L5.06259 37.4082L4.5982 37.105L4.22669 36.827L3.83195 36.4986L3.5301 36.2206L3.29791 35.9931L2.67098 35.3109L2.46201 35.0329L2.18338 34.6539L1.85831 34.1484L1.64933 33.7694L1.41714 33.3145L1.13851 32.6828L0.906309 32.0258L0.720557 31.3688L0.58124 30.7118L0.46514 29.8779L0.418706 29.2461V28.2858L0.488358 27.4771L0.604457 26.7444L0.766992 26.0368L1.04563 25.1523L1.25461 24.647L1.44036 24.2173L1.76543 23.6108L2.04406 23.1561L2.3227 22.7517L2.57811 22.3979L2.85675 22.0694L3.0425 21.842L3.22825 21.6651L3.46045 21.4123L3.71587 21.185L4.06415 20.8817L4.50532 20.5532L4.94649 20.25L5.61985 19.8709L6.08424 19.6435L6.73438 19.3907L7.24521 19.2392L7.87213 19.0875L8.59193 18.9865L8.89378 18.9612H16.2543L15.9757 18.658L15.6042 18.3799L15.2559 18.1778L14.8843 18.0262L14.4665 17.9252L14.2807 17.8998L13.3055 17.8746L12.8875 17.7735L12.5856 17.6472L12.2142 17.4197L11.8658 17.0913L11.6336 16.788L11.4247 16.3837L11.3086 16.0299L11.239 15.7013L11.2157 15.3729L11.0996 15.2466L10.8674 15.0191L10.612 14.6905L10.4031 14.2863L10.287 13.9325L10.2173 13.604L10.1941 13.4271V13.0227L10.2173 12.7954L9.86902 12.5679L9.6368 12.3657L9.4046 12.113L9.17242 11.7593L9.00988 11.3803L8.89378 10.9507L8.84735 10.521L8.87057 10.1167L8.96343 9.68715L9.10275 9.30809L9.28852 8.97959L9.47427 8.72689L9.70645 8.47419L9.93859 8.29731L10.1941 8.14568L10.4726 8.01933L10.8442 7.91825L11.0067 7.89299L10.6352 7.08435L10.496 6.68003L10.4263 6.27571V5.77031L10.496 5.36599L10.612 4.98695L10.821 4.58263L11.0067 4.32992L11.2622 4.05196L11.5641 3.82452L11.9355 3.62236L12.2374 3.52128L12.5393 3.47075ZM8.87057 20.9576L8.29008 21.0333L7.8257 21.1345L7.31486 21.286L6.78081 21.4882L6.13067 21.8167L5.71272 22.0694L5.36444 22.3222L4.99292 22.6254L4.7375 22.8528L4.50532 23.0802L4.08737 23.5351L3.8784 23.8131L3.69263 24.0657L3.414 24.4953L3.20503 24.8743L2.87996 25.5567L2.69421 26.062L2.53166 26.5927L2.39235 27.1993L2.29948 27.7804L2.25304 28.2858V29.2461L2.3227 29.9789L2.4388 30.6359L2.62455 31.3434L2.85675 31.9753L3.13538 32.6069L3.43723 33.1376L3.73908 33.5925L3.94805 33.8705L4.22669 34.199L4.69107 34.7044L4.94649 34.9317L5.31799 35.235L5.71272 35.513L6.08424 35.7404L6.45574 35.9425L7.03623 36.1953L7.54706 36.3722L8.05788 36.4986L8.4294 36.5743L8.87057 36.6249L9.4046 36.6501L14.1414 36.6755L14.6521 36.726L15.3488 36.8524L15.9757 37.0292L16.5794 37.2566L17.1134 37.5094L17.6475 37.8126L18.1351 38.141L18.5763 38.4948L18.8782 38.7728L19.0638 38.9497L19.3657 39.253L19.6676 39.6067L19.9229 39.9605L20.1551 40.289L20.4338 40.7439L20.666 41.1482H20.7125L20.9215 40.7439L21.2232 40.289L21.4322 39.9857L21.6412 39.7331L21.8038 39.531L21.8734 39.4551V39.4046H21.9199L22.0823 39.2024L22.3842 38.8992L22.7093 38.5959L23.0809 38.2927L23.4291 38.04L23.8935 37.7368L24.2417 37.5346L24.8223 37.2566L25.4492 37.0292L25.96 36.8776L26.5869 36.7512L27.2371 36.6755L28.607 36.6501H31.8345L32.6239 36.5996L33.3206 36.4732L33.8778 36.3217L34.4816 36.0942L34.9459 35.8668L35.4335 35.5888L35.8051 35.3361L36.1998 35.0329L36.5016 34.7548L36.9661 34.3001L37.2214 33.9968L37.4768 33.6683L37.7555 33.2639L37.9876 32.8597L38.2198 32.43L38.4521 31.8993L38.7075 31.1666L38.8933 30.4084L39.0094 29.6504L39.0326 29.3472V28.311L38.9628 27.6288L38.8933 27.1993L38.7539 26.5927L38.5449 25.9104L38.3359 25.405L38.1502 25.0008L37.8716 24.4953L37.593 24.0657L37.2679 23.6362L36.9892 23.3076L36.7106 23.0044L36.5249 22.8275L36.1533 22.4991L35.5961 22.0947L35.1084 21.7915L34.6672 21.564L34.11 21.3366L33.5528 21.1597L32.8329 21.0081L32.3454 20.9576H8.87057Z" fill="black"/>
<path d="M12.5611 4.64522L12.7744 4.66892L12.964 4.78742L13.1298 4.97703L13.4854 5.64063L13.8409 6.32793L14.0779 6.77822L14.22 7.01524L14.3623 7.18113L14.5993 7.32333L14.8836 7.39444L15.1917 7.37073L15.4288 7.27594L15.6658 7.08633L15.9265 6.75453L16.2109 6.39903L16.4242 6.11463L16.6849 5.80652L16.8508 5.66432L16.9693 5.61693H17.2536L17.4669 5.73543L17.5617 5.85393L17.6329 6.01982V6.25683L17.5381 6.47013L17.2536 6.84933L17.1589 7.06263L17.1351 7.15744V7.46553L17.2063 7.70253L17.3484 7.93953L17.5144 8.08173L17.775 8.20023L17.8699 8.22393H18.2017L18.3439 8.20023H18.6046L18.7942 8.29503L18.9364 8.46093L19.0075 8.60314V8.81643L18.9127 9.17195L18.9364 9.48004L19.0312 9.74074L19.197 9.95404L19.4578 10.1199L19.7896 10.2384L19.9554 10.3806L20.0502 10.5702V10.8072L19.9081 11.0916L19.6711 11.3998L19.3867 11.85L19.1023 12.4426L18.9364 12.9402L18.8179 13.4617L18.7468 14.0304V14.6703L18.8416 15.3339L18.9601 15.808L19.126 16.2583L19.3393 16.7322L19.5763 17.1825L19.6236 17.3011L19.6 17.3248H18.4386L18.3676 17.2537L18.2253 16.993L18.0358 16.6849L17.775 16.3294L17.5617 16.0923L17.3959 15.9028L17.1115 15.642L16.6612 15.3102L16.1872 15.0258L15.7843 14.8363L15.334 14.6703L14.7414 14.5282L14.1252 14.457L13.2721 14.4334L13.1298 14.3622L13.0113 14.2437L12.9165 14.1016L12.8929 14.0068V13.8171L12.9877 13.438L12.964 13.201L12.8455 12.8929L12.7269 12.7506V12.7033L12.0633 12.3715L11.9448 12.253L11.85 12.0397V11.85L11.9448 11.6367L12.1581 11.4234L12.3004 11.1865L12.3714 10.9968V10.6177L12.2529 10.3332L12.1108 10.1436L11.9211 10.0014L11.6842 9.90665L10.8783 9.88294L10.6888 9.78815L10.5465 9.62224L10.4992 9.50374V9.19563L10.5703 9.05343L10.7361 8.88754L10.9258 8.81643L11.0679 8.79274L12.4662 8.69793L12.7744 8.60314L12.9877 8.43723L13.1298 8.24764L13.2246 7.98694L13.2483 7.86844V7.70253L13.1535 7.39444L12.8929 6.87303L12.7269 6.58863L12.5374 6.20943L12.1818 5.54582L12.0871 5.30882V5.07182L12.2056 4.83482L12.4189 4.69262L12.5611 4.64522Z" fill="#83AD55"/>
<path d="M26.0227 8.38984H26.3072L26.4967 8.48464L26.6626 8.67424L26.71 8.81643L26.6863 9.07714L26.4967 9.48004L26.2124 10.0014L25.8806 10.6414L25.6435 11.0916L25.5723 11.2813L25.5487 11.6367L25.6435 11.9449L25.7858 12.1345L25.9753 12.3003L26.2124 12.3951L26.6152 12.4426L27.6107 12.5136L27.9187 12.5611L28.1083 12.6559L28.2506 12.8217L28.3216 13.0587L28.2743 13.272L28.132 13.4617L27.9425 13.5801L27.824 13.6038H27.1841L26.947 13.675L26.71 13.8171L26.5678 13.9831L26.4493 14.2201L26.4019 14.457L26.4257 14.7415L26.5204 14.9785L26.71 15.2154L26.8759 15.4051L26.947 15.5947L26.9233 15.808L26.8523 15.9502L26.6863 16.1161L26.2834 16.282L26.0701 16.4479L25.9279 16.6374L25.8568 16.7797L25.8331 16.8982L25.8094 17.3011L22.4204 17.3248H21.7805L21.7093 17.2537L21.3537 16.5901L21.0694 16.0687L20.8324 15.571L20.6903 15.1681L20.5953 14.6703V13.9831L20.6665 13.5801L20.8561 13.0114L21.0457 12.6559L21.2354 12.3951L21.5197 11.9922L21.7093 11.6131L21.8278 11.2576L21.8752 11.0205V10.3806L21.7805 9.97774L21.6382 9.62224L21.4722 9.31413L21.4249 9.19563L21.6855 9.26674L21.97 9.40894L22.1833 9.59854L22.4204 9.90665L22.6336 10.1673L22.918 10.5465L23.1788 10.8547L23.3683 10.9968L23.6054 11.0916L23.7001 11.1153H23.9134L24.1978 11.0443L24.4348 10.902L24.6006 10.7125L24.9089 10.1199L25.1932 9.59854L25.5487 8.91124L25.7383 8.60314L25.9516 8.41354L26.0227 8.38984Z" fill="#729742"/>
<path d="M4.05272 0.924308H4.52673L5.02443 0.995403L5.42732 1.1139L5.71173 1.2324L6.01983 1.39831L6.35163 1.63531L6.65974 1.91971L6.87303 2.15671L7.08633 2.46482L7.32333 2.91511L7.46553 3.31802L7.56034 3.83942V4.52672L7.51294 4.85853L7.39444 5.28512L7.22853 5.66432L7.03894 5.99613L6.80194 6.30422L6.54124 6.58863L6.28053 6.80193L5.92502 7.03893L5.52213 7.22853L5.16662 7.34703L4.83482 7.41813L4.38453 7.46553L3.91052 7.44183L3.50762 7.37073L3.00992 7.20483L2.55961 6.96783L2.27521 6.75453L2.03821 6.54122L1.80121 6.30422L1.54051 5.94873L1.39831 5.71173L1.20871 5.26142L1.09021 4.83482L1.04281 4.52672V3.86312L1.1139 3.43652L1.30351 2.86771L1.49312 2.51221L1.70641 2.20412L1.96712 1.89601L2.25152 1.63531L2.63071 1.3746L3.00992 1.18501L3.38911 1.04281L3.83942 0.948011L4.05272 0.924308Z" fill="black"/>
<path d="M38.0386 9.33784H38.7022L39.1052 9.40894L39.5554 9.57484L39.8636 9.74074L40.148 9.95404L40.385 10.1673L40.5983 10.4044L40.8116 10.7362L40.9774 11.068L41.0959 11.4234L41.1671 11.8027V12.4663L41.0722 12.9166L40.9301 13.2957L40.7168 13.675L40.5035 13.9594L40.1717 14.2912L39.8399 14.5282L39.3896 14.7415L38.9867 14.86L38.7497 14.9073L38.4889 14.9311H38.2283L37.8253 14.8836L37.3987 14.7652L36.9958 14.5755L36.7115 14.386L36.3797 14.1016L36.1664 13.8646L35.9294 13.509L35.7398 13.1062L35.6213 12.6796L35.5738 12.4188V11.8737L35.645 11.4709L35.7634 11.0916L35.9531 10.7125L36.1427 10.4281L36.4034 10.1199L36.7115 9.85924L37.1381 9.59854L37.4935 9.45634L37.849 9.36154L38.0386 9.33784Z" fill="black"/>
<path d="M30.7153 20.9983H31.3789L31.9241 21.0693L32.5639 21.2116L33.0616 21.3774L33.4882 21.5671L33.8675 21.7567L34.3178 22.041L34.6969 22.3255L35.0287 22.6099L35.408 22.9891L35.5738 23.1787L35.8109 23.4868L36.0242 23.7949L36.2612 24.1977L36.5218 24.7428L36.7115 25.2644L36.8536 25.8095L36.9485 26.4019L36.9721 26.6389V27.184L36.9248 27.3973L36.7826 27.6343L36.6878 27.7529L36.427 27.9187L36.1664 27.9898H35.9056L35.6686 27.9187L35.4317 27.7765L35.242 27.5632L35.1472 27.3499L35.0525 26.4967L34.9814 26.0938L34.8392 25.6198L34.6496 25.1696L34.4126 24.7666L34.1282 24.3874L33.8437 24.0794L33.5594 23.8186L33.1564 23.5343L32.7772 23.321L32.4217 23.155L31.9478 23.0127L31.5922 22.9417L30.7153 22.8469L30.4072 22.7284L30.1702 22.5151L30.028 22.2781L29.9807 22.1122V21.733L30.0517 21.5197L30.2413 21.259L30.502 21.0693L30.7153 20.9983Z" fill="black"/>
<path d="M4.55042 24.7428H4.97703L5.21403 24.8378L5.40363 24.9799L5.56952 25.1696L5.66432 25.3829L5.71173 25.5962L5.75913 26.2123L5.87763 26.8048L6.01983 27.2313L6.25683 27.7291L6.54124 28.1557L6.84933 28.5349L7.08633 28.7719L7.41814 29.0326L7.77364 29.2697L8.15284 29.4592L8.62684 29.6488L9.21934 29.791L9.97769 29.8621L10.2859 29.9333L10.4992 30.0754L10.665 30.2414L10.8073 30.5257L10.831 30.5968V30.9998L10.7125 31.2841L10.4755 31.5449L10.1437 31.7107L9.97769 31.7344H9.59854L9.12454 31.687L8.57943 31.5922L7.98694 31.4264L7.53664 31.2604L7.03894 31.0234L6.54124 30.7153L6.28053 30.5257L5.94873 30.265L5.73543 30.0517L5.54582 29.8858L5.37993 29.6963L5.16662 29.4592L4.83482 29.0089L4.50303 28.4401L4.28972 27.9898L4.10012 27.4684L3.95792 26.8997L3.86312 26.3071L3.83942 26.0228V25.5487L3.91052 25.288L4.05272 25.0747L4.14751 24.9561L4.36082 24.814L4.55042 24.7428Z" fill="black"/>
<path d="M30.1465 0H30.7391L31.0946 0.0711077L31.45 0.213297L31.7108 0.355499L32.0426 0.616201L32.2084 0.782106L32.4454 1.1139L32.6114 1.44571L32.7298 1.82491L32.7772 2.1093V2.46482L32.7298 2.82032L32.6114 3.19952L32.4217 3.57872L32.2084 3.86312L31.9478 4.12383L31.7108 4.28972L31.3552 4.47932L30.9997 4.59782L30.7628 4.64522L30.3598 4.66892L29.9569 4.62153L29.5778 4.50301L29.1985 4.31342L28.9142 4.10012L28.6297 3.81572L28.4638 3.57872L28.2743 3.22322L28.1558 2.84402L28.1083 2.58332V2.08562L28.1794 1.70641L28.3216 1.32721L28.5112 0.995403L28.7245 0.7347L28.9378 0.521404L29.246 0.308107L29.5778 0.142202L29.9807 0.0237027L30.1465 0Z" fill="black"/>
<path d="M13.0825 37.3276H15.0969L15.3577 37.3751L15.6183 37.5173L15.7843 37.6832L15.9501 38.015L15.9739 38.1335V38.4178L15.9028 38.6549L15.7132 38.9156L15.5473 39.0577L15.334 39.1525L15.0022 39.2H13.1298L12.8692 39.1525L12.6322 39.0341L12.4662 38.8919L12.3241 38.6549L12.2529 38.4653L12.2293 38.3468L12.2529 38.0387L12.3478 37.8017L12.5374 37.5646L12.7507 37.4224L12.9165 37.3513L13.0825 37.3276Z" fill="#010102"/>
<path d="M4.10012 2.79661H4.45562L4.83482 2.89141L5.09553 3.03361L5.33252 3.22322L5.49843 3.46022L5.64063 3.76831L5.71173 4.02902V4.36082L5.61693 4.69262L5.45102 5.00073L5.19032 5.28512L4.92962 5.45102L4.57412 5.56952L4.47932 5.59323H4.10012L3.76833 5.49843L3.46022 5.30882L3.22322 5.09553L3.05731 4.83482L2.96252 4.59782L2.91511 4.38451V3.98162L2.98622 3.69722L3.15211 3.38911L3.36542 3.15211L3.60242 2.98621L3.83942 2.86771L4.10012 2.79661Z" fill="#729742"/>
<path d="M32.5639 9.24304H32.9668L33.2276 9.33784L33.4646 9.52744L33.6067 9.74074L33.7015 10.0014V10.3096L33.6067 10.5939L33.4646 10.7835L33.2513 10.9732L33.0143 11.068L32.9195 11.0916H32.6114L32.3744 11.0205L32.1611 10.8783L31.9714 10.665L31.853 10.3806L31.8293 10.2621V10.0725L31.8766 9.85924L31.9951 9.62224L32.1611 9.43265L32.3981 9.29045L32.5639 9.24304Z" fill="#010102"/>
<path d="M23.2261 1.87231H23.6527L23.8897 1.96712L24.0793 2.1093L24.2215 2.27521L24.34 2.51221L24.3638 2.60702V2.98621L24.269 3.24691L24.103 3.46022L23.9134 3.60242L23.7001 3.69722L23.6054 3.72092H23.2735L23.0365 3.64981L22.7995 3.48392L22.6572 3.31802L22.5387 3.08102L22.4914 2.79661L22.5387 2.51221L22.681 2.2278L22.8705 2.03821L23.1313 1.89601L23.2261 1.87231Z" fill="#010101"/>
<path d="M37.2329 4.66892H37.6357L37.8965 4.76372L38.1098 4.92962L38.2519 5.11923L38.3468 5.33252L38.3704 5.42732V5.75913L38.2756 6.01982L38.1335 6.23313L37.9202 6.39903L37.7068 6.49383L37.5884 6.51753H37.2566L36.9958 6.42272L36.8063 6.28052L36.6403 6.09093L36.5218 5.80652L36.4982 5.68802L36.5218 5.37993L36.6403 5.09553L36.8063 4.90592L36.9958 4.76372L37.2329 4.66892Z" fill="#010101"/>
<path d="M2.77291 13.0587H3.03361L3.29431 13.1299L3.53131 13.2957L3.69722 13.4853L3.81572 13.7461L3.83942 13.8408V14.1489L3.74462 14.4097L3.60242 14.623L3.41281 14.7888L3.12842 14.9073H2.67811L2.44111 14.8125L2.25152 14.6703L2.08562 14.457L1.99082 14.2201L1.96712 14.1252V13.8883L2.06191 13.5801L2.20412 13.3668L2.39371 13.201L2.58332 13.1062L2.77291 13.0587Z" fill="#010101"/>
<path d="M37.3514 37.3276H37.541L37.8253 37.3988L38.0623 37.5646L38.2283 37.7542L38.3231 37.9439L38.3704 38.1098V38.4416L38.2519 38.7496L38.0386 38.9867L37.849 39.1052L37.6595 39.1762L37.3987 39.2L37.1381 39.1525L36.9011 39.0341L36.7351 38.8919L36.593 38.6549L36.5218 38.4653L36.4982 38.1808L36.5693 37.8965L36.7351 37.6357L36.9248 37.4699L37.1854 37.3513L37.3514 37.3276Z" fill="#010101"/>
<path d="M13.0113 29.8621H13.3195L13.5564 29.9333L13.7697 30.0754L13.9594 30.2887L14.0779 30.5494L14.1015 30.6205V30.976L14.0067 31.2131L13.8646 31.4264L13.6986 31.5685L13.4854 31.687L13.2483 31.7344L12.964 31.7107L12.6796 31.5922L12.4426 31.3789L12.3004 31.1419L12.2529 30.9998V30.5968L12.3478 30.3362L12.5374 30.0991L12.7744 29.9333L13.0113 29.8621Z" fill="black"/>
<path d="M38.2519 11.1865L38.5837 11.2101L38.8682 11.3286L39.1052 11.5419L39.2236 11.7316L39.3185 12.0397L39.2948 12.3478L39.1288 12.6796L38.9155 12.8929L38.6786 13.0114L38.4889 13.0587H38.2046L37.9438 12.9639L37.7543 12.8217L37.5647 12.6084L37.4699 12.3951L37.4462 12.2766V11.9685L37.5172 11.7316L37.6832 11.4946L37.9202 11.3049L38.1335 11.2101L38.2519 11.1865Z" fill="#729742"/>
<path d="M30.3835 1.84862L30.5731 1.87231L30.7628 1.9908L30.8813 2.18041L30.9049 2.39371L30.8338 2.58332L30.6443 2.74921L30.3835 2.79661L30.194 2.72552L30.0754 2.60702L30.0044 2.51221L29.9807 2.44111V2.20412L30.0754 2.03821L30.2413 1.89601L30.3835 1.84862Z" fill="#739844"/>
<path d="M19.4341 17.0878H19.5288L19.6236 17.3011L19.6 17.3248H18.4386V17.3011L18.7942 17.2773H19.3155L19.363 17.1352H19.4103L19.4341 17.0878Z" fill="#68855A"/>
<path d="M19.8844 10.3332L20.0029 10.4517L20.0502 10.5702V10.8072L20.0029 10.9257L19.9792 10.831L19.8844 10.8072L19.8607 10.665V10.4992L19.8844 10.4517H19.9318L19.8844 10.3332Z" fill="#709347"/>
<path d="M18.8416 8.36614L18.9364 8.46093L19.0075 8.60314V8.81643L18.9601 8.88754L18.8179 8.67424L18.7942 8.55573L18.7468 8.50834L18.8179 8.43723L18.8416 8.36614Z" fill="#719446"/>
<path d="M3.72092 2.91511L3.81572 2.93882L3.60242 3.05731L3.38911 3.22322L3.29431 3.29431L3.19952 3.46022L3.05731 3.72092L2.98622 3.95792H2.96252V3.76831L3.15211 3.38911L3.36542 3.15211L3.60242 2.98621L3.72092 2.91511Z" fill="#7BA055"/>
<path d="M11.0679 9.76444H11.3287L11.5182 9.78815L11.542 9.85924L11.5894 9.88294H10.8783L10.8073 9.83554L10.9021 9.81184L10.9258 9.83554H11.0679V9.76444Z" fill="#6F914A"/>
<path d="M38.015 11.2576L38.1098 11.2813L37.8253 11.4471L37.6595 11.6367L37.5172 11.9212H37.4935L37.5172 11.7316L37.6832 11.4946L37.9202 11.3049L38.015 11.2576Z" fill="#76995C"/>
<path d="M37.4935 11.9449L37.5172 11.9922V12.324L37.612 12.5611L37.7305 12.7506L37.6357 12.7033L37.5172 12.5136L37.4462 12.2766V11.9685L37.4935 11.9449Z" fill="#789C56"/>
<path d="M13.6039 14.386H14.1727L14.1964 14.4097L14.4097 14.4334V14.457L13.5328 14.4334L13.6039 14.386Z" fill="#709446"/>
<path d="M30.5495 2.65441L30.6443 2.67811V2.74921L30.3835 2.79661L30.2177 2.74921V2.70182L30.502 2.67811L30.5495 2.65441Z" fill="#7EA557"/>
<path d="M18.3439 8.20023H18.6046L18.6757 8.24764L18.5571 8.27134L18.3913 8.24764L18.1543 8.29503H17.9647V8.24764L18.3439 8.20023Z" fill="#6B8A52"/>
<path d="M3.72092 2.91511L3.81572 2.93882L3.60242 3.05731L3.38911 3.22322L3.22322 3.34172L3.27061 3.24691L3.48392 3.05731L3.72092 2.91511Z" fill="#789C5A"/>
<path d="M4.74003 2.89141L4.88223 2.91511L5.16662 3.08102L5.26143 3.17581L5.23773 3.22322L5.02443 3.05731L4.74003 2.91511V2.89141Z" fill="#779B58"/>
<path d="M30.8576 2.25151H30.9049L30.8813 2.48851L30.7864 2.63071L30.6679 2.72552V2.65441L30.7864 2.53591L30.8101 2.39371H30.8576V2.25151Z" fill="#75965C"/>
<path d="M37.6595 11.5656V11.6367L37.5172 11.9212H37.4935L37.5172 11.7316L37.612 11.5894L37.6595 11.5656Z" fill="#7CA356"/>
<path d="M13.2721 5.28512L13.3668 5.40362L13.3906 5.49843L13.3195 5.54582L13.2721 5.45102L13.2958 5.42732H13.2721V5.28512Z" fill="#709347"/>
<path d="M153.67 44.4722C121.587 37.6147 61.848 41.8252 51.7411 46.4512C91.5385 39.245 149.462 46.5576 153.735 47.8104C157.153 48.8127 158.789 45.5665 153.67 44.4722Z" fill="#FDA757"/>
</svg>
