<svg width="181" height="181" viewBox="0 0 181 181" fill="none" xmlns="http://www.w3.org/2000/svg">
<path d="M158.109 94.8198L169.221 92.7561C169.732 92.6658 170.166 92.5984 170.522 92.5539C170.891 92.5112 171.197 92.4933 171.438 92.5C171.456 92.2737 171.473 92.0606 171.487 91.8606C171.513 91.6758 171.531 91.4966 171.542 91.3231L172.849 91.5055L172.081 97.0121L170.991 96.8601C171.072 96.279 171.009 95.8663 170.8 95.6218C170.59 95.3906 170.142 95.3213 169.456 95.414C168.636 95.5015 167.841 95.6059 167.07 95.7272C166.299 95.8485 165.516 95.9613 164.721 96.0657C164.199 96.1409 163.711 96.2075 163.259 96.2656C162.818 96.3386 162.27 96.4036 161.616 96.4603L161.611 96.5C161.802 96.5804 162.062 96.6908 162.393 96.8312C162.723 96.9716 163.066 97.1204 163.421 97.2776C163.774 97.4481 164.097 97.5941 164.389 97.7157C164.693 97.8524 164.915 97.9507 165.055 98.0106C165.863 98.3926 166.653 98.7653 167.423 99.1287C168.205 99.507 168.944 99.8592 169.639 100.185C170.345 100.526 170.977 100.823 171.534 101.076L171.34 102.462C170.761 102.556 170.141 102.658 169.48 102.768C168.832 102.879 168.163 102.995 167.473 103.114C166.796 103.235 166.127 103.35 165.466 103.46C164.817 103.571 164.217 103.676 163.665 103.774C163.141 103.862 162.612 103.936 162.079 103.997C161.544 104.07 161.003 104.136 160.456 104.194L160.451 104.234C160.843 104.41 161.256 104.589 161.688 104.77C162.119 104.965 162.562 105.168 163.017 105.38C163.548 105.629 164.028 105.851 164.459 106.045C164.889 106.24 165.282 106.416 165.637 106.573C166.003 106.746 166.345 106.901 166.662 107.039C166.993 107.18 167.317 107.319 167.634 107.458C167.913 107.578 168.197 107.718 168.484 107.879C168.782 108.056 169.025 108.244 169.213 108.445C169.231 108.219 169.255 107.947 169.286 107.628C169.329 107.324 169.356 107.079 169.369 106.892L170.676 107.075L170.073 111.393L168.984 111.241C169.005 110.894 168.962 110.578 168.854 110.294C168.757 110.024 168.551 109.76 168.237 109.501C167.937 109.243 167.49 108.972 166.897 108.688C165.205 107.886 163.519 107.085 161.84 106.286C160.175 105.488 158.51 104.683 156.846 103.872L157.037 102.505L164.983 100.989C165.465 100.908 165.933 100.839 166.385 100.781C166.835 100.736 167.274 100.683 167.7 100.621C167.301 100.485 166.918 100.337 166.55 100.178C166.18 100.032 165.798 99.8712 165.406 99.6952L157.924 96.147L158.109 94.8198Z" fill="white"/>
<path d="M157.843 117.682C158.378 117.888 158.788 117.952 159.075 117.877C159.368 117.818 159.598 117.649 159.762 117.369C159.934 117.107 160.093 116.768 160.238 116.352L160.495 115.572L157.04 114.247C156.704 114.118 156.395 113.992 156.114 113.87C155.845 113.752 155.634 113.65 155.482 113.563L154.404 116.427C154.237 116.862 154.165 117.292 154.188 117.715C154.224 118.143 154.398 118.545 154.71 118.922C155.035 119.304 155.546 119.628 156.243 119.896L155.849 120.923L151.926 119.31L155.681 109.526L156.708 109.92C156.587 110.274 156.54 110.563 156.568 110.788C156.609 111.017 156.745 111.22 156.978 111.395C157.223 111.575 157.582 111.755 158.055 111.937L165.505 114.796C165.817 114.916 166.113 115.037 166.394 115.159C166.671 115.294 166.888 115.398 167.045 115.473C167.114 115.257 167.195 115.009 167.287 114.73C167.392 114.457 167.47 114.236 167.519 114.07L168.752 114.543L165.219 123.748L161.665 122.513L162.06 121.486C162.769 121.758 163.344 121.843 163.783 121.74C164.23 121.655 164.585 121.455 164.848 121.142C165.111 120.829 165.31 120.477 165.446 120.086L165.8 119.108C165.916 118.767 165.961 118.484 165.933 118.259C165.905 118.034 165.777 117.828 165.549 117.641C165.329 117.471 164.97 117.29 164.472 117.099L161.615 116.002L160.593 118.609L162.253 119.139L161.78 120.372L157.448 118.709L157.843 117.682Z" fill="white"/>
<path d="M149.89 123.6L150.824 124.254C150.61 124.559 150.525 124.866 150.57 125.174C150.615 125.482 150.737 125.796 150.937 126.115C151.148 126.441 151.388 126.796 151.657 127.18L158.272 136.667L157.653 137.552L146.103 134.766C145.871 134.702 145.548 134.606 145.133 134.478C144.718 134.35 144.381 134.204 144.122 134.039C144.003 134.233 143.888 134.42 143.776 134.603C143.665 134.785 143.563 134.942 143.472 135.073L142.39 134.316L145.314 130.138L146.216 130.769C145.979 131.107 145.889 131.386 145.947 131.606C146.005 131.825 146.156 132.005 146.401 132.143C146.638 132.293 146.911 132.403 147.22 132.472L148.621 132.843L151.216 128.995L150.37 127.866C150.231 127.671 150.071 127.445 149.892 127.19C149.724 126.942 149.577 126.709 149.453 126.492C149.326 126.696 149.188 126.917 149.038 127.154C148.881 127.402 148.753 127.597 148.653 127.739L147.539 126.959L149.89 123.6ZM152.012 130.09L149.856 133.17L152.884 133.971C153.348 134.1 153.807 134.234 154.262 134.374C154.721 134.532 155.136 134.684 155.506 134.829L155.529 134.797C155.356 134.578 155.13 134.297 154.849 133.954C154.561 133.622 154.25 133.218 153.917 132.74L152.012 130.09Z" fill="white"/>
<path d="M141.897 134.828L142.666 135.615C142.408 135.885 142.245 136.129 142.177 136.345C142.118 136.57 142.158 136.811 142.297 137.067C142.444 137.333 142.696 137.647 143.05 138.009L148.631 143.713C148.864 143.951 149.083 144.184 149.288 144.413C149.483 144.651 149.637 144.836 149.749 144.97C149.901 144.801 150.078 144.61 150.278 144.395C150.488 144.19 150.65 144.022 150.765 143.892L151.688 144.835C151.068 145.46 150.444 146.08 149.815 146.696C149.185 147.33 148.556 147.955 147.927 148.57C147.06 149.419 146.228 150.037 145.432 150.424C144.626 150.821 143.861 150.954 143.137 150.823C142.412 150.712 141.718 150.308 141.057 149.613C140.684 149.213 140.401 148.743 140.209 148.203C140.017 147.664 139.967 147.069 140.059 146.42C140.151 145.77 140.427 145.061 140.888 144.293C140.614 144.375 140.307 144.405 139.968 144.382C139.619 144.369 139.266 144.323 138.909 144.243L136.976 143.812C136.496 143.703 136.078 143.628 135.72 143.586C135.371 143.554 135.06 143.57 134.786 143.633C134.521 143.705 134.265 143.853 134.017 144.077L133.248 143.291L135.421 141.164C135.779 141.131 136.166 141.144 136.58 141.205C136.985 141.276 137.436 141.375 137.935 141.503L140.572 142.14C140.892 142.219 141.193 142.288 141.475 142.348C141.757 142.426 142.026 142.462 142.28 142.456C142.423 142.297 142.557 142.157 142.681 142.036C142.805 141.914 142.943 141.789 143.095 141.658L141.193 139.714C140.932 139.447 140.699 139.2 140.494 138.971C140.289 138.742 140.135 138.557 140.033 138.414C139.938 138.527 139.818 138.653 139.675 138.792C139.532 138.951 139.389 139.1 139.246 139.24C139.113 139.39 139.003 139.506 138.917 139.59L137.994 138.647L141.897 134.828ZM143.191 143.243C142.667 143.775 142.307 144.285 142.114 144.773C141.91 145.271 141.881 145.765 142.027 146.257C142.163 146.758 142.478 147.262 142.972 147.767C143.392 148.196 143.799 148.478 144.193 148.614C144.578 148.76 144.95 148.797 145.309 148.726C145.659 148.663 145.985 148.53 146.289 148.326C146.593 148.141 146.869 147.927 147.117 147.685C147.364 147.442 147.523 147.213 147.591 146.997C147.659 146.781 147.624 146.545 147.485 146.288C147.347 146.051 147.114 145.766 146.788 145.432L143.976 142.559C143.853 142.661 143.724 142.768 143.591 142.88C143.458 142.992 143.324 143.113 143.191 143.243Z" fill="white"/>
<path d="M129.718 151.603C130.038 152.079 130.337 152.368 130.615 152.47C130.889 152.591 131.173 152.584 131.469 152.45C131.76 152.334 132.085 152.148 132.443 151.891L133.101 151.4L131.035 148.33C130.834 148.032 130.653 147.751 130.493 147.489C130.341 147.239 130.227 147.034 130.152 146.875L127.625 148.6C127.237 148.861 126.932 149.171 126.708 149.53C126.491 149.901 126.403 150.33 126.442 150.818C126.488 151.317 126.72 151.877 127.137 152.496L126.224 153.11L123.94 149.537L132.635 143.686L133.249 144.599C132.946 144.818 132.742 145.028 132.636 145.228C132.537 145.439 132.532 145.683 132.622 145.96C132.72 146.248 132.91 146.602 133.193 147.023L137.648 153.643C137.834 153.92 138.007 154.189 138.167 154.451C138.316 154.72 138.434 154.931 138.519 155.082C138.7 154.944 138.908 154.788 139.144 154.613C139.387 154.449 139.577 154.314 139.714 154.206L140.451 155.301L132.27 160.806L130.072 157.753L130.984 157.139C131.409 157.77 131.83 158.169 132.249 158.337C132.664 158.524 133.069 158.565 133.464 158.46C133.859 158.354 134.224 158.181 134.56 157.939L135.412 157.342C135.703 157.13 135.902 156.924 136.008 156.724C136.114 156.523 136.128 156.281 136.049 155.997C135.967 155.731 135.777 155.377 135.479 154.934L133.771 152.395L131.436 153.942L132.491 155.33L131.396 156.067L128.805 152.217L129.718 151.603Z" fill="white"/>
<path d="M114.553 164.03C114.888 164.659 115.285 165.166 115.742 165.549C116.204 165.946 116.715 166.188 117.275 166.277C117.828 166.383 118.422 166.317 119.059 166.078C119.671 165.848 120.117 165.481 120.398 164.977C120.666 164.478 120.704 163.972 120.512 163.46C120.353 163.036 120.096 162.712 119.742 162.489C119.375 162.271 118.912 162.117 118.351 162.028C117.796 161.952 117.148 161.896 116.408 161.86C115.859 161.838 115.294 161.794 114.714 161.727C114.138 161.673 113.581 161.554 113.042 161.372C112.504 161.189 112.025 160.92 111.607 160.564C111.181 160.226 110.853 159.751 110.624 159.139C110.352 158.415 110.304 157.699 110.48 156.992C110.644 156.29 111.017 155.652 111.599 155.077C112.181 154.503 112.946 154.038 113.895 153.682C114.419 153.485 115.005 153.358 115.653 153.3C116.296 153.23 116.919 153.259 117.523 153.388L117.165 152.604L118.438 152.127L120.071 156.363L119.003 156.764C118.468 155.754 117.773 155.096 116.917 154.791C116.067 154.498 115.186 154.522 114.275 154.864C113.813 155.037 113.431 155.273 113.13 155.571C112.834 155.882 112.639 156.218 112.547 156.58C112.448 156.959 112.468 157.336 112.608 157.711C112.791 158.197 113.091 158.541 113.508 158.74C113.924 158.94 114.406 159.066 114.952 159.117C115.498 159.168 116.061 159.206 116.64 159.231C117.29 159.258 117.915 159.308 118.512 159.383C119.115 159.47 119.673 159.61 120.186 159.802C120.692 160.011 121.141 160.298 121.535 160.663C121.915 161.033 122.221 161.523 122.45 162.135C122.586 162.497 122.66 162.904 122.673 163.355C122.69 163.818 122.608 164.283 122.427 164.75C122.234 165.221 121.911 165.67 121.458 166.096C121.006 166.522 120.38 166.885 119.581 167.185C119.082 167.372 118.511 167.501 117.868 167.571C117.217 167.659 116.606 167.625 116.035 167.469L116.405 168.227L115.113 168.712L113.504 164.424L114.553 164.03Z" fill="white"/>
<path d="M102.715 162.147C102.824 162.71 102.987 163.093 103.203 163.295C103.409 163.513 103.674 163.618 103.998 163.609C104.312 163.616 104.683 163.571 105.112 163.473L105.91 163.277L105.203 159.646C105.134 159.292 105.077 158.964 105.031 158.66C104.988 158.37 104.963 158.137 104.956 157.962L101.956 158.566C101.498 158.655 101.096 158.822 100.75 159.066C100.406 159.323 100.157 159.684 100.003 160.149C99.8514 160.626 99.847 161.232 99.9897 161.965L98.91 162.175L98.1978 157.994L108.485 155.991L108.695 157.071C108.331 157.155 108.061 157.269 107.885 157.412C107.712 157.568 107.613 157.791 107.588 158.081C107.565 158.384 107.602 158.784 107.699 159.282L109.224 167.115C109.288 167.442 109.342 167.757 109.388 168.061C109.42 168.367 109.447 168.606 109.467 168.779C109.687 168.723 109.939 168.66 110.225 168.591C110.513 168.535 110.74 168.484 110.908 168.437L111.16 169.733L101.482 171.617L100.646 167.95L101.725 167.739C101.871 168.485 102.103 169.017 102.423 169.335C102.733 169.669 103.09 169.864 103.495 169.921C103.9 169.978 104.304 169.961 104.707 169.869L105.724 169.65C106.075 169.568 106.338 169.456 106.514 169.313C106.69 169.17 106.797 168.952 106.835 168.66C106.863 168.383 106.826 167.982 106.724 167.459L106.139 164.455L103.387 164.971L103.818 166.66L102.522 166.912L101.635 162.357L102.715 162.147Z" fill="white"/>
<path d="M96.9241 158.183L96.9368 159.283C96.5636 159.301 96.2777 159.364 96.0789 159.473C95.8803 159.596 95.7427 159.797 95.6659 160.078C95.5893 160.372 95.554 160.773 95.5598 161.279L95.6522 169.259C95.6561 169.592 95.6531 169.912 95.6433 170.219C95.6202 170.526 95.603 170.766 95.5917 170.94C95.8182 170.924 96.078 170.907 96.3712 170.891C96.6645 170.887 96.8977 170.878 97.0709 170.863L97.0862 172.182C96.2064 172.206 95.3265 172.223 94.4466 172.233C93.5535 172.257 92.6669 172.274 91.787 172.284C90.5737 172.298 89.5455 172.17 88.7023 171.9C87.8458 171.629 87.2008 171.197 86.7672 170.602C86.3204 170.02 86.0981 169.249 86.1004 168.289C86.1074 167.743 86.2278 167.208 86.4618 166.685C86.6958 166.162 87.0704 165.698 87.5858 165.292C88.1011 164.886 88.7907 164.565 89.6547 164.328C89.3999 164.198 89.1576 164.007 88.9281 163.756C88.6851 163.506 88.4619 163.228 88.2584 162.924L87.1592 161.277C86.8878 160.866 86.6371 160.523 86.4072 160.245C86.1775 159.981 85.9418 159.777 85.7001 159.633C85.4586 159.503 85.1711 159.433 84.8376 159.423L84.8249 158.323L87.8647 158.288C88.1473 158.512 88.4172 158.789 88.6743 159.119C88.9182 159.45 89.176 159.833 89.4477 160.27L90.9143 162.553C91.0908 162.831 91.2605 163.089 91.4233 163.327C91.5728 163.579 91.742 163.79 91.9306 163.962C92.1438 163.946 92.337 163.937 92.5104 163.935C92.6837 163.933 92.8704 163.937 93.0706 163.948L93.0391 161.229C93.0347 160.855 93.0375 160.515 93.0472 160.208C93.057 159.902 93.0742 159.661 93.0989 159.488C92.9524 159.503 92.7792 159.511 92.5792 159.514C92.366 159.53 92.1594 159.539 91.9594 159.541C91.7596 159.557 91.5997 159.565 91.4797 159.567L91.4644 158.247L96.9241 158.183ZM92.0445 165.16C91.2981 165.182 90.6861 165.303 90.2086 165.522C89.7178 165.741 89.355 166.078 89.1202 166.534C88.8722 166.991 88.7522 167.572 88.7604 168.279C88.7674 168.879 88.8663 169.364 89.0573 169.735C89.2349 170.107 89.4783 170.39 89.7872 170.587C90.0828 170.783 90.411 170.913 90.7718 170.975C91.1193 171.051 91.4665 171.087 91.8131 171.083C92.1597 171.079 92.4324 171.023 92.6312 170.914C92.8299 170.805 92.9677 170.61 93.0444 170.329C93.108 170.062 93.1371 169.695 93.1317 169.228L93.0851 165.208C92.925 165.197 92.7582 165.185 92.5847 165.174C92.4112 165.163 92.2312 165.158 92.0445 165.16Z" fill="white"/>
<path d="M78.6504 157.137L81.2748 168.476C81.3788 168.955 81.4569 169.389 81.5093 169.778C81.5594 170.18 81.5698 170.5 81.5407 170.738C81.753 170.763 81.9523 170.785 82.1384 170.805C82.309 170.835 82.4742 170.858 82.6341 170.873L82.4016 172.172L77.0073 171.207L77.2009 170.125C77.7545 170.21 78.161 170.134 78.4203 169.896C78.6773 169.671 78.7416 169.235 78.6133 168.589C78.4322 167.785 78.2629 166.989 78.1057 166.203C77.9352 165.414 77.7618 164.604 77.5853 163.773C77.4332 163.109 77.3032 162.51 77.1956 161.976C77.0748 161.44 76.966 160.913 76.8691 160.394L76.8297 160.387C76.6102 160.781 76.3806 161.194 76.1409 161.625C75.8989 162.07 75.6492 162.519 75.3917 162.974C75.0226 163.599 74.6891 164.176 74.3913 164.705C74.0935 165.234 73.8104 165.719 73.5421 166.158C73.2715 166.611 73.0253 167.041 72.8034 167.449C72.6777 167.697 72.5199 167.973 72.33 168.278C72.1377 168.596 71.9529 168.834 71.7757 168.992C72.0011 169.018 72.266 169.052 72.5702 169.093C72.8721 169.147 73.1161 169.184 73.3022 169.204L73.0698 170.503L68.7779 169.735L68.9716 168.653C69.4727 168.729 69.9143 168.645 70.2964 168.402C70.6654 168.156 71.0546 167.684 71.4641 166.985C71.6943 166.607 71.927 166.215 72.1619 165.81C72.3946 165.418 72.6384 165.001 72.8936 164.559C73.1487 164.117 73.4306 163.639 73.7392 163.126C74.0478 162.612 74.3855 162.049 74.7523 161.438C75.1059 160.824 75.5052 160.143 75.9503 159.397C76.3823 158.648 76.8623 157.819 77.3904 156.912L78.6504 157.137Z" fill="white"/>
<path d="M62.0611 166.159C62.4065 166.261 62.6995 166.289 62.94 166.244C63.1636 166.207 63.358 166.068 63.5232 165.828C63.6885 165.589 63.8542 165.222 64.0203 164.73L66.5565 157.206C66.6715 156.864 66.7843 156.551 66.8949 156.264C67.0055 155.978 67.1011 155.757 67.1818 155.601C66.9627 155.541 66.7121 155.471 66.4298 155.39C66.1476 155.309 65.9244 155.241 65.7601 155.185L66.1818 153.934L71.2231 155.634L70.8717 156.676C70.5137 156.57 70.2228 156.535 69.9992 156.572C69.7714 156.622 69.5748 156.767 69.4096 157.006C69.2401 157.259 69.0744 157.625 68.9126 158.105L66.3635 165.667C66.2571 165.983 66.1485 166.284 66.0379 166.571C65.9147 166.853 65.8191 167.074 65.7511 167.234C65.9701 167.293 66.2208 167.364 66.503 167.445C66.781 167.539 67.0042 167.607 67.1727 167.65L66.7511 168.9L61.7098 167.201L62.0611 166.159Z" fill="white"/>
<path d="M55.216 148.418L57.1435 159.634C57.1736 159.891 57.2156 160.155 57.2693 160.424C57.305 160.699 57.3407 160.974 57.3764 161.25L57.3941 161.259L60.6167 155.067C60.7847 154.749 60.9524 154.445 61.1198 154.157C61.2754 153.862 61.4147 153.626 61.5379 153.45C61.3312 153.356 61.0951 153.247 60.8294 153.122C60.5638 152.996 60.3543 152.893 60.201 152.812L60.8171 151.645L64.5846 153.633L64.0712 154.606C63.7584 154.456 63.4976 154.379 63.289 154.374C63.0623 154.375 62.8517 154.46 62.6571 154.629C62.4564 154.809 62.2595 155.082 62.0666 155.448L58.2008 162.815C58.0515 163.098 57.9025 163.366 57.7537 163.62C57.605 163.873 57.4812 164.079 57.3823 164.238C57.5772 164.326 57.8075 164.432 58.0731 164.557C58.3325 164.694 58.542 164.797 58.7015 164.866L58.0854 166.034L55.5384 164.689L53.6865 154.101C53.6069 153.652 53.544 153.257 53.4979 152.916C53.4399 152.568 53.393 152.257 53.3573 151.982L53.3396 151.973L49.9417 158.411C49.7861 158.706 49.6308 158.986 49.4759 159.251C49.321 159.516 49.1971 159.722 49.1045 159.869C49.2993 159.957 49.5296 160.063 49.7953 160.188C50.0547 160.325 50.27 160.431 50.4413 160.507L49.8252 161.674L46.0401 159.676L46.5535 158.703C46.8781 158.86 47.1627 158.935 47.4074 158.928C47.6341 158.927 47.8481 158.821 48.0496 158.611C48.251 158.401 48.4731 158.066 48.7158 157.606L53.9425 147.745L55.216 148.418Z" fill="white"/>
<path d="M46.9679 142.316C48.0506 143.225 48.7872 144.235 49.1777 145.346C49.5597 146.467 49.6173 147.612 49.3504 148.78C49.0749 149.959 48.5001 151.069 47.6259 152.111C47.0345 152.816 46.3444 153.42 45.5557 153.925C44.7482 154.431 43.8935 154.775 42.9914 154.958C42.0809 155.151 41.1565 155.133 40.2183 154.903C39.2614 154.674 38.3386 154.187 37.45 153.441C37.1436 153.184 36.8374 152.875 36.5313 152.514C36.2253 152.152 35.95 151.765 35.7056 151.351C35.4424 150.938 35.2415 150.535 35.1028 150.14L34.5985 150.866L33.526 149.966L36.5086 146.411L37.3513 147.118C36.9273 147.789 36.6861 148.44 36.6276 149.07C36.5691 149.699 36.6686 150.296 36.9262 150.861C37.165 151.427 37.5448 151.928 38.0657 152.365C38.5968 152.811 39.1797 153.091 39.8144 153.206C40.4389 153.312 41.0749 153.28 41.7225 153.11C42.3599 152.931 42.9823 152.635 43.5898 152.223C44.1972 151.81 44.7581 151.297 45.2723 150.684C46.0265 149.786 46.5657 148.863 46.8899 147.917C47.1953 146.972 47.259 146.077 47.0809 145.231C46.8942 144.396 46.4332 143.669 45.6978 143.052C45.4731 142.864 45.21 142.669 44.9086 142.468C44.5985 142.278 44.2713 142.107 43.927 141.958C43.5826 141.808 43.2561 141.699 42.9473 141.632L41.6231 143.21C41.4003 143.475 41.1766 143.732 40.9522 143.978C40.7277 144.225 40.5418 144.426 40.3944 144.581C40.5766 144.716 40.7844 144.873 41.0176 145.051C41.2423 145.24 41.4254 145.385 41.5667 145.486L40.7182 146.497L36.8421 143.245L37.5492 142.402C37.7722 142.572 37.9802 142.677 38.1729 142.717C38.3571 142.767 38.5458 142.76 38.7389 142.696C38.9235 142.642 39.1082 142.535 39.2931 142.377C39.478 142.219 39.6691 142.023 39.8662 141.788L41.8846 139.382L42.2676 139.704C42.5127 139.909 42.8177 140.096 43.1825 140.263C43.5386 140.44 43.9375 140.618 44.3791 140.797C44.7814 140.96 45.2066 141.169 45.6547 141.423C46.1114 141.667 46.5492 141.965 46.9679 142.316Z" fill="white"/>
<path d="M36.8036 134.422C36.5775 134.124 36.3633 133.925 36.1608 133.823C35.9475 133.728 35.7034 133.729 35.4284 133.825C35.1426 133.929 34.7927 134.127 34.3787 134.419L27.8575 139.018C27.5851 139.21 27.3197 139.389 27.0614 139.555C26.7955 139.71 26.5878 139.832 26.4385 139.921C26.58 140.099 26.7408 140.304 26.9207 140.536C27.0898 140.775 27.2297 140.962 27.3405 141.096L26.2618 141.857C25.7514 141.156 25.2426 140.447 24.7354 139.727C24.2282 139.008 23.7156 138.293 23.1975 137.582C22.4872 136.598 22.0093 135.654 21.7636 134.75C21.507 133.855 21.5057 133.032 21.7597 132.281C22.0029 131.539 22.533 130.879 23.3502 130.303C23.7861 129.996 24.2872 129.781 24.8537 129.659C25.4016 129.533 25.9991 129.536 26.6462 129.667C27.2747 129.795 27.9263 130.094 28.6008 130.564C29.2677 131.024 29.9232 131.688 30.5675 132.555C30.6905 132.729 30.8096 132.898 30.9248 133.061C31.0401 133.225 31.1461 133.387 31.2428 133.547L32.9916 132.314C33.2967 132.098 33.5784 131.908 33.8366 131.742C34.0949 131.576 34.3026 131.454 34.4596 131.376C34.3488 131.242 34.2319 131.088 34.109 130.914C33.9751 130.747 33.8467 130.576 33.7238 130.402C33.5822 130.225 33.4769 130.087 33.4077 129.989L34.4864 129.228L37.7025 133.788L36.8036 134.422ZM30.2131 134.273C30.1241 134.124 30.039 133.98 29.9576 133.842C29.8763 133.703 29.7819 133.558 29.6743 133.405C29.2439 132.795 28.7738 132.36 28.2638 132.099C27.7462 131.828 27.209 131.726 26.6521 131.792C26.0844 131.866 25.5063 132.111 24.9179 132.526C24.384 132.902 24.002 133.286 23.7718 133.677C23.5416 134.067 23.4277 134.45 23.4302 134.823C23.4217 135.204 23.4923 135.571 23.6422 135.922C23.792 136.273 23.9744 136.601 24.1896 136.906C24.3894 137.19 24.5905 137.382 24.793 137.484C24.9877 137.575 25.2226 137.573 25.4975 137.477C25.7538 137.378 26.0727 137.193 26.4541 136.924L30.2131 134.273Z" fill="white"/>
<path d="M23.6015 120.042C23.083 120.287 22.7523 120.539 22.6093 120.798C22.4485 121.051 22.4123 121.333 22.5007 121.645C22.5714 121.951 22.7067 122.3 22.9066 122.692L23.2929 123.417L26.6387 121.837C26.9642 121.683 27.2685 121.547 27.5515 121.428C27.8224 121.315 28.042 121.233 28.2101 121.184L26.8855 118.425C26.6863 118.003 26.4257 117.654 26.1039 117.379C25.77 117.109 25.3589 116.956 24.8706 116.921C24.3703 116.892 23.7825 117.037 23.1073 117.356L22.6377 116.361L26.5145 114.641L30.989 124.118L29.9943 124.588C29.8228 124.256 29.6462 124.022 29.4643 123.887C29.2704 123.757 29.0298 123.716 28.7425 123.763C28.443 123.816 28.0643 123.951 27.6061 124.167L20.39 127.574C20.0886 127.717 19.7964 127.847 19.5134 127.966C19.2247 128.073 18.9991 128.157 18.8367 128.219C18.9455 128.418 19.0686 128.648 19.2059 128.907C19.3311 129.173 19.4368 129.381 19.5228 129.532L18.3292 130.095L14.1194 121.179L17.4682 119.465L17.9379 120.46C17.2506 120.785 16.7923 121.141 16.5628 121.53C16.3157 121.912 16.2143 122.306 16.2589 122.713C16.3034 123.119 16.4199 123.507 16.6084 123.875L17.0706 124.807C17.2363 125.126 17.4101 125.354 17.592 125.489C17.7738 125.625 18.0113 125.675 18.3043 125.639C18.5796 125.598 18.9584 125.463 19.4407 125.236L22.2077 123.929L21.0303 121.389L19.4996 122.222L18.936 121.028L23.1318 119.047L23.6015 120.042Z" fill="white"/>
<path d="M24.6139 106.958C24.9219 108.187 24.9776 109.286 24.781 110.257C24.5844 111.227 24.2115 112.07 23.6622 112.785C23.0968 113.49 22.4245 114.071 21.6455 114.527C20.8664 114.984 20.0566 115.317 19.216 115.528C18.4012 115.732 17.5459 115.803 16.6501 115.739C15.7413 115.678 14.868 115.457 14.0302 115.076C13.1892 114.682 12.4483 114.111 11.8075 113.365C11.1667 112.618 10.702 111.67 10.4134 110.518C10.1183 109.342 10.0772 108.273 10.29 107.312C10.4995 106.339 10.8918 105.491 11.467 104.77C12.0259 104.038 12.6868 103.44 13.4497 102.974C14.2093 102.494 14.9965 102.153 15.8113 101.948C16.6132 101.747 17.462 101.679 18.3578 101.743C19.2536 101.807 20.1285 102.035 20.9825 102.425C21.8203 102.806 22.5661 103.368 23.2198 104.112C23.8606 104.858 24.3253 105.807 24.6139 106.958ZM23.3722 107.105C23.1906 106.38 22.8701 105.815 22.4106 105.407C21.9479 104.987 21.406 104.69 20.785 104.516C20.164 104.342 19.5123 104.265 18.83 104.285C18.1315 104.295 17.4654 104.379 16.8317 104.538C15.9652 104.755 15.1796 105.049 14.4748 105.418C13.7572 105.79 13.1592 106.229 12.681 106.733C12.1995 107.225 11.8651 107.783 11.678 108.408C11.4779 109.035 11.4735 109.703 11.6648 110.411C11.8561 111.119 12.1895 111.681 12.6652 112.098C13.1247 112.505 13.673 112.801 14.3102 112.985C14.9312 113.159 15.5893 113.235 16.2846 113.212C16.9798 113.188 17.6443 113.097 18.278 112.939C18.9247 112.776 19.5842 112.529 20.2566 112.195C20.929 111.862 21.5399 111.447 22.0893 110.952C22.6388 110.457 23.0394 109.889 23.2912 109.249C23.5397 108.595 23.5667 107.881 23.3722 107.105Z" fill="white"/>
<path d="M21.5155 99.4909C21.482 99.1189 21.4066 98.8358 21.2893 98.6419C21.1587 98.4487 20.9514 98.3197 20.6675 98.2549C20.3703 98.1909 19.9687 98.1725 19.4628 98.1999L11.4944 98.6308C11.1616 98.6488 10.8417 98.6594 10.5348 98.6626C10.2271 98.6526 9.98637 98.6455 9.81257 98.6416C9.83813 98.8672 9.86548 99.1261 9.89463 99.4183C9.91047 99.7112 9.92972 99.9438 9.9524 100.116L8.63432 100.187C8.57421 99.3228 8.5204 98.4511 8.47289 97.5724C8.42537 96.6936 8.3712 95.8153 8.31037 94.9373C8.23154 93.7264 8.32814 92.673 8.60016 91.777C8.85886 90.8818 9.29515 90.1838 9.90901 89.6833C10.5096 89.1835 11.3091 88.9066 12.3077 88.8526C12.8402 88.8238 13.3789 88.9082 13.9237 89.1057C14.4544 89.2906 14.9591 89.6105 15.4377 90.0653C15.9023 90.5076 16.2952 91.1072 16.6166 91.8643C16.9372 92.6081 17.14 93.5185 17.2249 94.5955C17.2364 94.8085 17.2476 95.0148 17.2584 95.2145C17.2692 95.4143 17.273 95.6077 17.2697 95.7948L19.4066 95.6792C19.7794 95.6591 20.1193 95.6474 20.4262 95.6441C20.7331 95.6409 20.9739 95.6479 21.1484 95.6652C21.1257 95.4928 21.1086 95.3001 21.0971 95.0871C21.0723 94.8748 21.0541 94.6621 21.0426 94.4491C21.017 94.2235 21.001 94.0508 20.9945 93.9309L22.3126 93.8597L22.6139 99.4315L21.5155 99.4909ZM16.0116 95.8628C16.0155 95.689 16.0198 95.5219 16.0245 95.3614C16.0292 95.2009 16.0265 95.0275 16.0164 94.8411C15.9761 94.0955 15.8091 93.4769 15.5155 92.9854C15.2211 92.4806 14.8205 92.1083 14.3134 91.8687C13.7931 91.6298 13.1735 91.5297 12.4545 91.5686C11.8021 91.6039 11.2746 91.7259 10.872 91.9346C10.4693 92.1433 10.1698 92.4065 9.9733 92.7243C9.76353 93.0427 9.62877 93.3905 9.56905 93.7676C9.50932 94.1447 9.48954 94.5197 9.5097 94.8925C9.52842 95.2386 9.59643 95.5087 9.71374 95.7026C9.83033 95.8833 10.0306 96.006 10.3145 96.0707C10.5844 96.1229 10.9523 96.1364 11.4183 96.1112L16.0116 95.8628Z" fill="white"/>
<path d="M22.1025 87.2642L21.0098 87.1373C21.0396 86.7649 21.0131 86.4732 20.9302 86.2622C20.8341 86.0497 20.6516 85.8876 20.3827 85.7758C20.1006 85.6625 19.7078 85.5766 19.2046 85.5182L11.2778 84.5975C10.9467 84.559 10.6296 84.5155 10.3266 84.4669C10.025 84.405 9.78894 84.3575 9.6183 84.3242C9.60539 84.5509 9.58864 84.8107 9.56804 85.1036C9.5342 85.395 9.5139 85.6275 9.50715 85.8013L8.19596 85.649L8.80974 80.3645L9.9024 80.4914C9.87411 80.8505 9.90726 81.143 10.0018 81.3687C10.0847 81.5797 10.2606 81.7411 10.5295 81.8528C10.7984 81.9646 11.1911 82.0505 11.7077 82.1105L19.6145 83.0289C19.9721 83.0704 20.3024 83.1155 20.6055 83.1641C20.8954 83.2112 21.1248 83.258 21.2939 83.3045L21.6248 80.2824C21.7038 79.4862 21.5039 78.8389 21.0249 78.3403C20.5458 77.8417 19.7501 77.5278 18.6376 77.3985L18.7668 76.286L23.3023 76.9336L22.1025 87.2642Z" fill="white"/>
<path d="M20.559 68.5209C20.0086 68.3604 19.5939 68.3299 19.315 68.4291C19.027 68.5118 18.8126 68.6994 18.6719 68.9916C18.5221 69.2674 18.392 69.6184 18.2817 70.0445L18.0907 70.843L21.6429 71.8782C21.9885 71.979 22.3067 72.0786 22.5974 72.1772C22.8753 72.2721 23.0937 72.3566 23.2526 72.4307L24.0896 69.4873C24.2202 69.0393 24.2564 68.6054 24.1981 68.1857C24.1271 67.7622 23.9204 67.3756 23.5779 67.0258C23.2226 66.6723 22.6866 66.3911 21.9697 66.1822L22.2775 65.1261L26.3202 66.4084L23.3879 76.4699L22.3318 76.1621C22.4235 75.7999 22.4461 75.5079 22.3996 75.2861C22.3404 75.0605 22.1875 74.8701 21.9411 74.715C21.6819 74.5561 21.309 74.4058 20.8226 74.264L13.1613 72.0312C12.8413 71.9379 12.536 71.842 12.2453 71.7434C11.9583 71.632 11.7335 71.5456 11.5708 71.4843C11.5202 71.7057 11.4603 71.959 11.391 72.2444C11.3089 72.526 11.25 72.7519 11.2143 72.922L9.94705 72.5527L12.7059 63.0865L16.3493 64.0233L16.0415 65.0794C15.3118 64.8668 14.7324 64.8298 14.3031 64.9686C13.8647 65.0908 13.5274 65.3189 13.2912 65.6528C13.055 65.9867 12.8855 66.3539 12.7826 66.7545L12.5108 67.7585C12.4229 68.1079 12.4022 68.3935 12.4486 68.6154C12.4951 68.8372 12.6396 69.0321 12.8823 69.2001C13.116 69.3515 13.4888 69.5018 14.0008 69.651L16.9386 70.5072L17.7413 67.8246L16.0428 67.4338L16.4121 66.1665L20.8668 67.4648L20.559 68.5209Z" fill="white"/>
<path d="M28.6418 60.9355L27.6865 60.3901C27.8601 60.0593 27.9501 59.7806 27.9567 59.554C27.9517 59.3208 27.8474 59.1001 27.6439 58.8917C27.4289 58.6768 27.1014 58.4437 26.6614 58.1925L19.7316 54.2353C19.4422 54.07 19.1676 53.9056 18.9079 53.7419C18.6548 53.5667 18.4563 53.4303 18.3124 53.3328C18.2116 53.5362 18.0942 53.7686 17.9603 54.03C17.8149 54.2847 17.705 54.4906 17.6306 54.6478L16.4843 53.9932L21.3241 45.5177L24.6389 47.2954L24.0934 48.2506C23.4334 47.8737 22.8785 47.7027 22.4287 47.7376C21.9673 47.7659 21.5828 47.9148 21.2753 48.1845C20.9678 48.4541 20.7206 48.7659 20.5339 49.1199L20.0653 49.9808C19.9049 50.2885 19.8273 50.5589 19.8323 50.7921C19.844 51.0137 19.9573 51.232 20.1724 51.4469C20.3758 51.6552 20.6918 51.8817 21.1202 52.1263L24.1422 53.852L25.3918 51.6637L23.8486 50.8976L24.5032 49.7513L28.5325 52.0522L27.9969 52.9901C27.4991 52.7058 27.0971 52.5761 26.7912 52.601C26.4853 52.6259 26.2298 52.764 26.0248 53.0155C25.8148 53.2487 25.6156 53.5572 25.4272 53.9409L25.1669 54.4372L27.9978 56.0537C28.3105 56.2322 28.5966 56.4033 28.8563 56.567C29.116 56.7306 29.3145 56.867 29.4518 56.9761C29.5262 56.819 29.6196 56.642 29.732 56.4452C29.8394 56.2301 29.9493 56.0242 30.0617 55.8274C30.1691 55.6123 30.2559 55.4469 30.322 55.3312L31.4683 55.9857L28.6418 60.9355Z" fill="white"/>
<path d="M38.5001 46.5987C37.6788 47.5631 36.8162 48.247 35.9121 48.6505C35.0081 49.054 34.1055 49.2398 33.2045 49.208C32.3019 49.1574 31.4385 48.9475 30.6144 48.5785C29.7904 48.2094 29.0484 47.744 28.3886 47.1821C27.7491 46.6374 27.1953 45.9819 26.7271 45.2155C26.2489 44.4404 25.9215 43.6012 25.7451 42.6979C25.5773 41.7844 25.6112 40.85 25.8467 39.8948C26.0823 38.9395 26.5848 38.0102 27.3542 37.1067C28.1409 36.183 28.987 35.5287 29.8925 35.1441C30.8067 34.7492 31.7245 34.5763 32.6459 34.6255C33.5658 34.6558 34.437 34.8461 35.2596 35.1963C36.0908 35.5364 36.8261 35.9788 37.4657 36.5234C38.095 37.0594 38.6438 37.7106 39.1119 38.477C39.58 39.2435 39.9031 40.0877 40.081 41.0099C40.2574 41.9132 40.233 42.8468 40.0075 43.8107C39.772 44.7659 39.2695 45.6953 38.5001 46.5987ZM37.6598 45.6729C38.1439 45.1045 38.4182 44.515 38.4828 43.9045C38.556 43.2838 38.4832 42.6702 38.2643 42.0634C38.0455 41.4567 37.7298 40.8814 37.3173 40.3375C36.9034 39.7748 36.4477 39.2817 35.9503 38.8581C35.2701 38.2789 34.5752 37.8096 33.8654 37.4504C33.1454 37.0824 32.4411 36.8504 31.7524 36.7542C31.0724 36.648 30.4239 36.6999 29.807 36.9101C29.18 37.1117 28.6339 37.496 28.1686 38.063C27.7032 38.6299 27.4391 39.228 27.376 39.8573C27.3114 40.4678 27.3893 41.0859 27.6097 41.7114C27.8286 42.3181 28.1493 42.8977 28.5719 43.4502C28.9945 44.0028 29.4545 44.4909 29.9519 44.9145C30.4595 45.3467 31.0443 45.7396 31.7063 46.0933C32.3684 46.447 33.0605 46.7036 33.7827 46.8633C34.5048 47.0229 35.1997 47.0193 35.8674 46.8523C36.5436 46.6751 37.1411 46.282 37.6598 45.6729Z" fill="white"/>
<path d="M43.2536 40.6989L42.5713 39.836C42.8559 39.594 43.0436 39.3691 43.1343 39.1614C43.2168 38.9432 43.2025 38.6995 43.0916 38.4302C42.9725 38.1505 42.7557 37.8119 42.4415 37.4145L37.4922 31.1548C37.2854 30.8933 37.0922 30.6381 36.9124 30.3893C36.7432 30.1322 36.61 29.9315 36.5129 29.7873C36.3434 29.9383 36.1477 30.1101 35.9259 30.3024C35.6958 30.4844 35.5169 30.6343 35.3892 30.7523L34.5705 29.7168C35.2525 29.1606 35.9387 28.6096 36.629 28.0638C37.3215 27.4993 38.0129 26.9441 38.7032 26.3983C39.655 25.6458 40.5471 25.1188 41.3797 24.8175C42.2228 24.5079 42.9977 24.4561 43.7045 24.6621C44.4135 24.8494 45.0605 25.3237 45.6455 26.0851C45.974 26.5222 46.2055 27.0191 46.3397 27.5758C46.474 28.1326 46.4612 28.7291 46.3014 29.3654C46.1416 30.0017 45.792 30.6775 45.2528 31.3928C45.5342 31.3403 45.8424 31.3431 46.1773 31.4012C46.5227 31.4511 46.8689 31.5343 47.216 31.6508L49.0927 32.2831C49.5583 32.442 49.9668 32.5609 50.3182 32.64C50.6614 32.7086 50.9726 32.726 51.2519 32.6922C51.5228 32.6479 51.7932 32.5276 52.0629 32.3313L52.7452 33.1942L50.3605 35.0797C50.0003 35.0755 49.6174 35.0213 49.212 34.9169C48.817 34.8043 48.3784 34.6581 47.8964 34.4784L45.3403 33.5673C45.0306 33.4551 44.7386 33.3546 44.4643 33.2655C44.1921 33.1578 43.9291 33.0938 43.6751 33.0736C43.5161 33.2164 43.3685 33.3415 43.2326 33.449C43.0966 33.5565 42.946 33.6671 42.7809 33.7807L44.4679 35.9143C44.6994 36.2072 44.9051 36.478 45.0848 36.7268C45.2646 36.9757 45.3977 37.1763 45.4843 37.3288C45.5911 37.2274 45.7229 37.1147 45.8798 36.9906C46.0389 36.8479 46.1969 36.7145 46.3537 36.5904C46.5024 36.4559 46.6237 36.3514 46.7179 36.277L47.5366 37.3125L43.2536 40.6989ZM42.8524 32.1943C43.4299 31.7208 43.8407 31.2515 44.0849 30.7864C44.3396 30.3131 44.4205 29.8242 44.3276 29.3197C44.2451 28.807 43.9848 28.2735 43.5465 27.7192C43.1743 27.2485 42.7993 26.9246 42.4213 26.7475C42.0538 26.5622 41.6877 26.4862 41.3231 26.5195C40.969 26.5445 40.63 26.6426 40.3063 26.8135C39.9848 26.9658 39.688 27.1494 39.4161 27.3644C39.1441 27.5794 38.9628 27.7908 38.8721 27.9985C38.7813 28.2062 38.7914 28.4447 38.9023 28.714C39.0154 28.9645 39.2167 29.2728 39.5061 29.6389L41.9994 32.7923C42.1332 32.7035 42.2722 32.6106 42.4164 32.5135C42.5607 32.4165 42.706 32.3101 42.8524 32.1943Z" fill="white"/>
<path d="M57.9168 30.3419L57.4324 29.3542C57.7498 29.1837 57.9807 29.0036 58.1253 28.8139C58.2818 28.6184 58.3493 28.3774 58.3276 28.091C58.3001 27.7926 58.1748 27.416 57.9517 26.9611L54.1908 19.3383L52.7873 21.5637L51.7991 20.9569L54.3046 16.1639L55.2203 15.7148L60.2403 25.95C60.3871 26.2493 60.522 26.5395 60.645 26.8207C60.7742 27.0841 60.865 27.2995 60.9174 27.4668C61.127 27.3492 61.3665 27.2168 61.636 27.0698C61.9174 26.9169 62.1359 26.8023 62.2916 26.726L62.8728 27.9112L57.9168 30.3419Z" fill="white"/>
<path d="M68.9829 25.9718C68.019 26.2846 67.1415 26.3451 66.3503 26.1533C65.555 25.9489 64.8517 25.5743 64.2405 25.0298C63.625 24.4725 63.0969 23.8169 62.6559 23.0628C62.2276 22.3047 61.8838 21.5261 61.6245 20.7271C61.3652 19.9282 61.2033 19.0836 61.1386 18.1934C61.0867 17.2991 61.1652 16.4395 61.3741 15.6148C61.579 14.7773 61.9369 14.0444 62.4478 13.4159C62.9547 12.7748 63.652 12.3102 64.5397 12.0221C65.4655 11.7217 66.3134 11.6778 67.0833 11.8905C67.8659 12.0991 68.5586 12.4841 69.1613 13.0454C69.7726 13.59 70.2987 14.2393 70.7397 14.9933C71.1807 15.7474 71.5308 16.5239 71.7901 17.3229C72.0453 18.1092 72.2052 18.9474 72.2698 19.8376C72.3471 20.7237 72.2897 21.5834 72.0976 22.4167C71.914 23.2333 71.5688 23.9621 71.0619 24.6032C70.5636 25.2275 69.8706 25.6837 68.9829 25.9718ZM68.7266 24.7934C69.1958 24.6411 69.5396 24.3613 69.7578 23.9541C69.9761 23.5468 70.0854 23.0628 70.0856 22.502C70.0944 21.9244 70.0319 21.2998 69.8981 20.6284C69.7601 19.9442 69.578 19.2533 69.3516 18.5558C69.1006 17.7822 68.8176 17.04 68.5028 16.3291C68.2007 15.6141 67.8662 14.9937 67.4993 14.468C67.1283 13.9295 66.7203 13.5363 66.2753 13.2882C65.843 13.036 65.3732 12.9922 64.8659 13.1568C64.3713 13.3174 64.0086 13.6033 63.7776 14.0147C63.5593 14.422 63.4331 14.9185 63.3989 15.5043C63.3648 16.0902 63.4103 16.7272 63.5356 17.4155C63.6694 18.087 63.8515 18.7778 64.082 19.488C64.2549 20.0207 64.453 20.5662 64.6762 21.1245C64.8995 21.6829 65.1483 22.2119 65.4226 22.7116C65.7096 23.2072 66.0182 23.6398 66.3484 24.0092C66.6912 24.3746 67.056 24.6347 67.4427 24.7895C67.8421 24.9403 68.27 24.9416 68.7266 24.7934Z" fill="white"/>
<path d="M82.7292 22.5989L82.6571 21.5013C83.0288 21.4635 83.3105 21.3782 83.5022 21.2453C83.6939 21.1125 83.8205 20.9037 83.8819 20.6191C83.9434 20.3345 83.9575 19.9394 83.9243 19.4338L83.7985 17.5179L79.8314 12.0461C79.5674 11.6893 79.3434 11.3299 79.1592 10.9679C78.9751 10.6058 78.8623 10.3126 78.8209 10.0882C78.6089 10.1154 78.4235 10.141 78.2647 10.1648C78.105 10.1753 77.9392 10.1928 77.7671 10.2175L77.6806 8.90034L83.3284 8.52939L83.4005 9.62702C82.934 9.6443 82.5787 9.72777 82.3346 9.87742C82.1039 10.0262 81.9839 10.2345 81.9748 10.5023C81.9781 10.756 82.1126 11.0745 82.3783 11.458L84.0788 13.8516C84.1674 13.9795 84.2856 14.1521 84.4335 14.3695C84.5806 14.5737 84.7289 14.7977 84.8785 15.0418C85.0406 15.2717 85.1814 15.4829 85.301 15.6755L85.3209 15.6742C85.401 15.4685 85.5041 15.2078 85.6304 14.8922C85.7699 14.5757 85.9326 14.2042 86.1184 13.7778L87.2157 11.2605C87.2727 11.1098 87.3473 10.9245 87.4398 10.7046C87.5456 10.4839 87.658 10.2627 87.777 10.0411C87.8952 9.80616 88.0094 9.61159 88.1195 9.45738C87.8942 9.48554 87.6223 9.51676 87.3039 9.55103C86.9988 9.58444 86.7535 9.61391 86.5681 9.63945L86.4816 8.32228L90.7923 8.03915L90.8644 9.13679C90.3357 9.22496 89.9031 9.45381 89.5666 9.82332C89.2301 10.1928 88.881 10.777 88.5192 11.5757C88.1352 12.4428 87.7508 13.3031 87.3659 14.1569C86.9935 14.9964 86.6272 15.8289 86.2672 16.6542C86.2812 16.8671 86.2965 17.1 86.3131 17.3527C86.3297 17.6055 86.3467 17.865 86.3642 18.1311C86.3817 18.3972 86.3979 18.6433 86.4127 18.8695C86.4267 19.0824 86.4376 19.2487 86.4455 19.3684C86.4691 19.7276 86.4843 20.0607 86.4911 20.3676C86.4979 20.6744 86.4936 20.9152 86.4784 21.0899C86.717 21.0609 86.9955 21.0293 87.314 20.995C87.6457 20.9598 87.9047 20.9361 88.091 20.9239L88.1775 22.2411L82.7292 22.5989Z" fill="white"/>
<path d="M99.9582 17.9499C100.024 17.3804 99.9852 16.9664 99.8407 16.708C99.711 16.4379 99.4903 16.2579 99.1786 16.168C98.8817 16.0664 98.5139 15.9969 98.0753 15.9594L97.2562 15.9045L96.8293 19.5798C96.7878 19.9374 96.7427 20.2677 96.6941 20.5708C96.647 20.8606 96.6002 21.0901 96.5537 21.2592L99.5956 21.5924C100.059 21.6462 100.493 21.6093 100.897 21.4818C101.303 21.341 101.649 21.0725 101.937 20.6764C102.226 20.267 102.414 19.6915 102.5 18.9498L103.593 19.0767L103.004 23.2769L92.594 22.0677L92.7209 20.9751C93.0933 21.0049 93.3849 20.9784 93.5959 20.8955C93.8084 20.7994 93.9706 20.6169 94.0823 20.348C94.1956 20.0658 94.2815 19.6731 94.34 19.1698L95.2606 11.2431C95.2991 10.912 95.3426 10.5949 95.3913 10.2918C95.4531 9.9903 95.5007 9.75421 95.5339 9.58357C95.3072 9.57066 95.0474 9.55391 94.7545 9.53331C94.4632 9.49947 94.2306 9.47917 94.0569 9.47242L94.2092 8.16123L104.003 9.29881L103.689 13.0475L102.596 12.9206C102.684 12.1657 102.623 11.5882 102.415 11.1881C102.221 10.7764 101.94 10.482 101.571 10.3049C101.202 10.1278 100.812 10.0221 100.4 9.98766L99.3645 9.88753C99.0053 9.85925 98.7203 9.88654 98.5093 9.96942C98.2983 10.0523 98.1303 10.2274 98.0053 10.4948C97.8951 10.7504 97.8092 11.1432 97.7477 11.6729L97.3946 14.7125L100.174 15.0554L100.275 13.3155L101.586 13.4678L101.051 18.0768L99.9582 17.9499Z" fill="white"/>
<path d="M103.101 23.0802L103.433 21.9894C103.79 22.0979 104.108 22.0831 104.387 21.9448C104.666 21.8066 104.926 21.5929 105.167 21.3039C105.412 21.0021 105.675 20.6639 105.956 20.2894L112.921 11.0552L113.954 11.3691L114.892 23.2131C114.902 23.4533 114.911 23.7904 114.919 24.2247C114.926 24.6589 114.892 25.0247 114.815 25.322C115.036 25.3751 115.251 25.4263 115.459 25.4756C115.667 25.5248 115.847 25.5727 116 25.6192L115.617 26.8822L110.737 25.3998L111.056 24.3473C111.452 24.4674 111.745 24.4659 111.936 24.3427C112.127 24.2194 112.25 24.02 112.306 23.7443C112.374 23.4726 112.394 23.1789 112.364 22.8633L112.281 21.4167L107.818 20.1445L107.008 21.2988C106.865 21.4924 106.7 21.7141 106.513 21.9637C106.33 22.2006 106.154 22.412 105.986 22.5979C106.22 22.6549 106.472 22.7177 106.744 22.7863C107.029 22.8588 107.254 22.9203 107.42 22.9707L107.024 24.272L103.101 23.0802ZM108.611 19.0477L112.209 20.1406L112.03 17.0137C112.009 16.5334 111.994 16.0551 111.985 15.5787C111.993 15.0934 112.009 14.6522 112.032 14.2551L111.994 14.2435C111.84 14.4754 111.643 14.778 111.405 15.1514C111.178 15.5286 110.89 15.9497 110.54 16.4146L108.611 19.0477Z" fill="white"/>
<path d="M116.603 27.2746L117.117 26.3018C117.453 26.4643 117.735 26.545 117.961 26.544C118.194 26.5312 118.411 26.4197 118.613 26.2094C118.82 25.9873 119.043 25.6523 119.279 25.2042L123.004 18.1468C123.159 17.852 123.315 17.5721 123.47 17.3071C123.636 17.0483 123.766 16.8454 123.859 16.6983C123.652 16.6043 123.416 16.4948 123.15 16.3696C122.891 16.2327 122.681 16.1297 122.522 16.0606L123.138 14.8932C123.922 15.2922 124.704 15.697 125.482 16.1078C126.278 16.5129 127.066 16.9209 127.844 17.3316C128.917 17.898 129.759 18.501 130.372 19.1407C130.996 19.7866 131.356 20.4745 131.454 21.2043C131.569 21.9285 131.397 22.712 130.937 23.5548C130.67 24.032 130.309 24.4446 129.854 24.7924C129.399 25.1403 128.848 25.3697 128.201 25.4808C127.555 25.5918 126.795 25.5453 125.923 25.3412C126.085 25.5774 126.207 25.8604 126.289 26.1902C126.383 26.5263 126.447 26.8766 126.481 27.2412L126.661 29.2134C126.704 29.7034 126.76 30.1251 126.83 30.4785C126.906 30.8202 127.016 31.1118 127.16 31.3536C127.31 31.5835 127.529 31.7822 127.818 31.9495L127.304 32.9224L124.616 31.5034C124.474 31.1723 124.369 30.8002 124.3 30.3871C124.244 29.9803 124.2 29.5201 124.17 29.0065L123.97 26.3003C123.947 25.9718 123.921 25.664 123.892 25.3771C123.88 25.0846 123.832 24.8181 123.748 24.5777C123.553 24.4899 123.379 24.4056 123.226 24.3247C123.073 24.2438 122.911 24.1508 122.74 24.0456L121.47 26.4511C121.296 26.7813 121.131 27.0789 120.977 27.3439C120.822 27.6089 120.692 27.8118 120.587 27.9526C120.723 28.0093 120.88 28.0843 121.057 28.1777C121.252 28.2654 121.437 28.356 121.614 28.4494C121.797 28.5309 121.942 28.5997 122.048 28.6557L121.432 29.8231L116.603 27.2746ZM124.22 23.4698C124.886 23.8065 125.482 23.9925 126.006 24.0279C126.542 24.0695 127.021 23.9459 127.445 23.657C127.881 23.3743 128.264 22.9205 128.594 22.2955C128.874 21.7649 129.018 21.2909 129.027 20.8736C129.048 20.4625 128.97 20.097 128.792 19.777C128.626 19.4632 128.399 19.1928 128.112 18.9658C127.843 18.7332 127.555 18.5361 127.248 18.3742C126.942 18.2124 126.675 18.132 126.448 18.133C126.222 18.134 126.008 18.2396 125.806 18.4499C125.623 18.6546 125.422 18.9633 125.204 19.3761L123.328 22.9313C123.463 23.0178 123.604 23.1073 123.752 23.2C123.899 23.2927 124.055 23.3827 124.22 23.4698Z" fill="white"/>
<path d="M139.984 30.6387C140.342 30.0225 140.564 29.419 140.65 28.8282C140.744 28.2268 140.682 27.6645 140.463 27.1413C140.262 26.6156 139.893 26.1449 139.355 25.729C138.838 25.3294 138.292 25.1427 137.715 25.169C137.149 25.2034 136.699 25.4369 136.365 25.8694C136.088 26.228 135.947 26.6167 135.944 27.0354C135.951 27.4622 136.064 27.9372 136.283 28.4605C136.51 28.9732 136.803 29.5535 137.162 30.2015C137.432 30.6801 137.692 31.1839 137.94 31.713C138.196 32.2314 138.389 32.7676 138.516 33.3215C138.644 33.8755 138.667 34.4239 138.585 34.9667C138.521 35.5072 138.289 36.0358 137.889 36.5527C137.416 37.1646 136.833 37.5814 136.139 37.8033C135.455 38.0334 134.716 38.052 133.922 37.859C133.127 37.6661 132.329 37.2597 131.527 36.64C131.084 36.2975 130.668 35.866 130.278 35.3456C129.88 34.8357 129.577 34.2899 129.37 33.7082L128.891 34.4253L127.815 33.5935L130.56 29.9772L131.462 30.6744C130.885 31.6607 130.692 32.598 130.881 33.4862C131.079 34.3639 131.563 35.1003 132.333 35.6956C132.724 35.9973 133.125 36.1979 133.537 36.2972C133.957 36.386 134.345 36.3744 134.701 36.2622C135.076 36.1477 135.386 35.9322 135.631 35.6157C135.949 35.2043 136.083 34.7689 136.034 34.3094C135.985 33.85 135.838 33.3745 135.595 32.8829C135.351 32.3913 135.088 31.8927 134.804 31.3872C134.485 30.8198 134.199 30.2623 133.949 29.7145C133.706 29.1563 133.531 28.6083 133.425 28.0707C133.336 27.5307 133.344 26.9974 133.448 26.4709C133.562 25.9525 133.819 25.4349 134.219 24.918C134.455 24.612 134.762 24.3352 135.139 24.0873C135.524 23.8289 135.963 23.6539 136.455 23.5624C136.957 23.4791 137.509 23.5178 138.109 23.6786C138.709 23.8393 139.347 24.1807 140.022 24.7026C140.444 25.0288 140.854 25.4468 141.252 25.9567C141.669 26.4641 141.961 27.0018 142.129 27.5696L142.579 26.8561L143.671 27.7001L140.87 31.3236L139.984 30.6387Z" fill="white"/>
<path d="M137.237 41.5744C136.96 41.3049 136.823 40.9769 136.827 40.5903C136.849 40.2033 137 39.8664 137.279 39.5795C137.567 39.283 137.904 39.1272 138.29 39.1122C138.696 39.0969 139.027 39.2146 139.286 39.4655C139.563 39.7349 139.69 40.0631 139.668 40.45C139.654 40.8273 139.504 41.1643 139.216 41.4607C138.937 41.7477 138.604 41.9081 138.218 41.942C137.842 41.9663 137.515 41.8438 137.237 41.5744Z" fill="white"/>
</svg>
